<?xml version="1.0" encoding="UTF-8" standalone="no"?>
<svg
   width="162"
   height="173"
   viewBox="0 0 162 173"
   fill="none"
   version="1.1"
   id="svg27"
   sodipodi:docname="iconFaim.svg"
   inkscape:version="1.4 (86a8ad7, 2024-10-11)"
   xmlns:inkscape="http://www.inkscape.org/namespaces/inkscape"
   xmlns:sodipodi="http://sodipodi.sourceforge.net/DTD/sodipodi-0.dtd"
   xmlns="http://www.w3.org/2000/svg"
   xmlns:svg="http://www.w3.org/2000/svg">
  <defs
     id="defs27" />
  <sodipodi:namedview
     id="namedview27"
     pagecolor="#ffffff"
     bordercolor="#000000"
     borderopacity="0.25"
     inkscape:showpageshadow="2"
     inkscape:pageopacity="0.0"
     inkscape:pagecheckerboard="0"
     inkscape:deskcolor="#d1d1d1"
     inkscape:zoom="4.4682081"
     inkscape:cx="81.016818"
     inkscape:cy="86.5"
     inkscape:window-width="2400"
     inkscape:window-height="1261"
     inkscape:window-x="-9"
     inkscape:window-y="-9"
     inkscape:window-maximized="1"
     inkscape:current-layer="svg27" />
  <path
     d="M161.083 82.6177C161.033 82.9244 160.948 83.231 160.94 83.539C160.361 104.264 152.685 122.016 138.497 137.023C134.259 141.506 129.487 145.363 124.305 148.714C124.044 148.883 123.776 149.043 123.361 149.3C123.492 148.331 123.603 147.524 123.708 146.716C124.209 142.888 124.065 139.064 123.761 135.226C123.243 128.7 120.492 123.051 117.005 117.696C116.375 116.727 116.469 116.042 117.116 115.168C119.308 116.471 121.799 116.276 124.192 116.571C124.907 116.66 125.671 116.595 126.379 116.444C128.117 116.074 128.888 115.004 128.691 113.259C128.601 112.471 128.408 111.683 128.16 110.93C127.82 109.899 127.423 108.882 126.976 107.892C126.532 106.911 125.996 105.97 125.463 104.936C125.653 104.936 125.883 104.924 126.109 104.939C127.024 104.998 127.893 104.847 128.701 104.395C129.807 103.776 130.457 102.886 130.587 101.58C130.873 98.663 130.663 95.7644 130.391 92.8644C130.316 92.0684 129.9 91.4177 129.445 90.795C128.419 89.3884 127.131 88.235 125.815 87.1124C125.524 86.863 125.2 86.6457 124.939 86.3684C124.819 86.2404 124.815 86.0044 124.829 85.751C126.441 87.1457 128.372 87.4204 130.339 87.5084C131.095 87.5417 131.884 87.4777 132.616 87.291C134.468 86.8164 135.219 85.4724 134.677 83.6364C134.463 82.907 134.135 82.199 133.775 81.5257C132.551 79.2417 130.829 77.3524 128.936 75.611C128.324 75.0484 127.703 74.4924 127.051 73.9777C126.676 73.6804 126.6 73.379 126.656 72.9097C127.315 67.4097 128.325 61.9764 129.609 56.591C129.684 56.2777 129.744 55.991 130.116 55.8524C130.972 55.531 131.492 54.8324 131.941 54.083C132.9 52.4817 133.624 50.7817 134.023 48.951C134.091 48.639 134.164 48.3297 134.253 47.9377C134.408 48.0777 134.517 48.175 134.624 48.275C135.641 49.2364 137.017 49.1857 137.917 48.1204C138.203 47.783 138.445 47.3897 138.625 46.9857C140.209 43.435 140.855 39.731 140.36 35.8537C140.261 35.0777 140.024 34.351 139.519 33.743C138.804 32.8844 138.121 31.987 137.317 31.2177C136.828 30.7484 136.176 30.3657 135.527 30.163C133.875 29.6497 132.559 30.7764 132.709 32.4937C132.797 33.4977 132.912 34.499 132.892 35.5484C132.705 35.303 132.52 35.0537 132.328 34.811C131.031 33.1737 129.285 32.759 127.337 33.1137C126.469 33.2724 125.92 33.9844 125.605 34.7817C125.363 35.3977 125.256 36.067 125.061 36.8217C123.745 35.4897 122.06 34.8897 120.215 34.4577C119.603 35.1337 118.963 35.8017 118.376 36.5137C118.215 36.7097 118.165 37.0363 118.149 37.307C118.116 37.8763 118.139 38.4497 118.139 39.0884C118.023 39.039 117.897 39.019 117.823 38.947C117.161 38.3164 116.351 38.119 115.469 38.0017C114.095 37.819 113.12 38.3604 112.373 39.4644C111.64 40.5497 111.297 41.771 111.081 43.191C110.941 42.9537 110.845 42.827 110.787 42.6857C110.437 41.831 110.189 40.9204 109.733 40.1284C108.963 38.7924 107.6 38.2804 106.107 38.615C105.893 38.663 105.665 38.731 105.492 38.8537C104.207 39.763 103.015 40.7764 102.075 42.0564C101.427 42.9404 101.115 43.8884 101.265 45.0204C101.376 45.8564 101.287 46.7177 101.287 47.7617C101.085 47.295 100.944 46.991 100.821 46.679C100.291 45.3337 99.6693 44.0377 98.724 42.9284C97.912 41.9764 96.9453 41.2884 95.6573 41.123C95.1747 41.0617 94.788 41.171 94.4107 41.459C93.6093 42.0724 93.1533 42.8897 92.9227 43.8524C92.8573 44.127 92.7947 44.4004 92.7053 44.779C92.3547 44.2644 92.0933 43.8257 91.7787 43.4297C90.208 41.4497 88.1813 40.751 85.7253 41.3377C83.4573 41.879 81.8747 43.1857 81.312 45.5097C81.1253 46.279 81.08 47.0924 81.052 47.8884C81.0027 49.295 81.0147 50.703 81.0027 52.111C81 52.4257 81.0027 52.7404 81.0027 53.1204C80.6867 53.1364 80.4493 53.1484 80.1573 53.1617C80.12 52.9017 80.0707 52.6897 80.0627 52.4777C80.0027 51.007 79.9387 49.5377 79.8987 48.067C79.848 46.1977 79.004 44.767 77.524 43.6817C76.5813 42.9884 75.524 42.5284 74.376 42.3324C72.268 41.971 69.4027 43.603 68.7507 45.6484C68.3973 46.7604 68.3134 47.9617 68.148 49.1284C68.0654 49.7137 68.072 50.3137 67.8667 50.911C67.648 49.843 67.4733 48.763 67.1987 47.7097C66.7787 46.103 66.344 44.4964 65.8187 42.923C65.2347 41.175 64.276 40.7964 62.5547 41.5044C61.612 41.891 60.872 42.5417 60.2387 43.3217C59.9587 43.6657 59.6987 44.0283 59.364 44.4683C59.2 43.9083 59.096 43.4204 58.9133 42.9644C58.3627 41.5844 57.5227 40.375 56.5987 39.2244C56.452 39.0417 56.208 38.8883 55.98 38.823C53.6307 38.155 51.5133 38.7337 50.4027 41.199C50.224 41.5977 50.0587 42.0004 49.7533 42.383C49.672 41.4457 49.5867 40.507 49.512 39.5697C49.4333 38.5884 49.276 38.367 48.3053 38.1297C46.3987 37.6657 43.564 38.631 42.7827 40.4817C42.7107 40.6524 42.6107 40.811 42.3533 40.975C42.2573 40.2724 42.1573 39.5697 42.0653 38.867C41.992 38.2964 41.9387 37.723 41.8587 37.1537C41.7227 36.1977 41.1813 35.6723 40.2347 35.547C39.3653 35.431 38.5853 35.679 37.868 36.1444C37.2853 36.5217 36.7213 36.927 36.1187 37.343C35.8173 36.483 35.576 35.6577 35.2413 34.8724C34.696 33.591 33.5733 32.9017 32.208 33.083C31.668 33.1537 31.116 33.4364 30.6613 33.7537C30.0387 34.1897 29.5053 34.7524 28.788 35.2044C28.96 34.6617 29.1227 34.1164 29.308 33.5764C29.6373 32.615 29.2893 31.971 28.2867 31.7657C27.5347 31.611 26.8147 31.7537 26.1627 32.147C24.244 33.307 22.564 34.731 21.5387 36.7657C19.7133 40.3857 19.736 44.0257 21.588 47.635C21.8173 48.083 22.14 48.499 22.4827 48.8724C23.1493 49.599 24.0213 49.7564 24.9507 49.571C25.9427 49.3737 26.5093 48.6204 26.5093 47.583C26.5107 45.6617 26.7027 43.763 27.2427 41.8817C27.2427 42.1364 27.2413 42.3924 27.2427 42.647C27.264 45.823 27.5547 48.9737 28.228 52.0777C28.4427 53.0684 28.792 54.043 29.1827 54.9817C29.5987 55.9777 30.3427 56.687 31.4827 56.7737C32.304 56.8364 32.5693 57.2844 32.7427 58.0337C34.0293 63.583 35.0333 69.179 35.7733 74.8284C35.912 75.879 35.66 76.5764 34.9813 77.2977C34.1933 78.1337 33.464 79.0324 32.7613 79.943C31.0067 82.2177 30.1347 84.8417 29.984 87.675C29.8613 89.971 31.056 91.079 33.3787 91.059C33.504 91.0577 33.6293 91.0577 33.8427 91.0577C33.76 91.3057 33.7107 91.5044 33.6293 91.6897C31.672 96.111 32.1173 100.418 34.2827 104.622C34.884 105.79 35.7707 106.727 37.0933 107.078C37.6667 107.23 38.2813 107.22 38.9787 107.296C38.688 107.954 38.4147 108.591 38.1253 109.222C37.5627 110.447 37.3707 111.72 37.576 113.056C37.9387 115.404 39.4533 116.816 41.8253 117C42.0467 117.018 42.268 117.035 42.5107 117.054C42.588 117.207 42.656 117.348 42.7293 117.486C43.12 118.214 43.0987 118.851 42.644 119.614C42.1293 120.479 41.7653 121.466 41.5067 122.446C40.9427 124.57 41.3507 126.591 42.548 128.407C43.1947 129.39 43.9653 130.303 44.7533 131.18C46.0747 132.654 47.6253 133.526 49.7613 132.616C49.6507 133.888 49.5013 135.056 49.4587 136.23C49.412 137.472 49.376 138.728 49.4987 139.962C49.736 142.348 51.0933 143.959 53.2853 144.85C55.364 145.695 57.4613 145.675 59.5973 144.764C59.7227 144.982 59.8387 145.196 59.968 145.403C60.3907 146.079 60.752 146.807 61.2573 147.416C62.8507 149.338 64.9667 149.823 67.3227 149.368C68.4987 149.142 69.4187 148.444 70.0293 147.387C70.1533 147.171 70.2733 146.954 70.4613 146.616C70.6413 146.956 70.776 147.19 70.8907 147.432C72.4667 150.771 75.444 152.416 79.2813 151.994C80.0707 151.906 80.8573 151.73 81.6267 151.526C82.8693 151.198 83.98 150.655 84.4867 149.252C84.7373 149.418 84.9133 149.528 85.0827 149.648C86.496 150.65 88.0787 151.059 89.7933 150.966C92.3413 150.827 93.88 148.644 93.152 146.195C92.78 144.942 92.3667 143.702 91.9493 142.386C92.2507 142.275 92.5347 142.171 92.812 142.07C92.9133 142.21 92.988 142.278 93.0213 142.363C94.3507 145.739 95.3907 149.198 95.6453 152.832C95.7213 153.932 95.5747 155.075 95.3453 156.158C95.2133 156.778 94.7827 157.378 94.36 157.882C93.208 159.256 91.72 160.236 90.0827 160.892C89.2227 161.238 88.2027 161.223 87.2507 161.292C69.1413 162.602 52.316 158.599 37.108 148.634C18.6387 136.531 7.00401 119.568 2.17201 98.0084C0.497343 90.5337 0.0413466 82.9417 0.61068 75.3017C2.81468 45.7764 20.6187 21.4937 44.692 9.41235C52.5933 5.44702 60.9213 2.85768 69.6707 1.65102C71.9493 1.33635 74.2547 1.21369 76.5467 0.993688C76.8867 0.961688 77.224 0.883012 77.5627 0.825679H83.8987C84.2053 0.881679 84.5107 0.972348 84.82 0.987015C88.7227 1.18435 92.596 1.63902 96.4227 2.42035C112.373 5.67235 126.209 12.9603 137.628 24.5657C152.413 39.5923 160.307 57.6684 160.937 78.8217C160.947 79.1284 161.033 79.4324 161.083 79.7377V82.6177Z"
     fill="#231F20"
     id="path1"
     style="fill:#ffffff" />
  <path
     d="M70.9656 80.9847C71.299 81.7327 71.595 82.5007 71.9736 83.226C72.3883 84.0167 72.8216 84.8087 73.347 85.5274C74.395 86.9647 75.8403 87.686 77.671 87.6194C77.7096 87.7607 77.7763 87.8794 77.771 87.994C77.6496 90.3127 78.2243 92.498 79.0576 94.6287C80.8083 99.106 83.415 103.083 86.3843 106.857C86.2256 106.586 86.0736 106.311 85.9083 106.045C83.8163 102.651 82.1256 99.0794 81.1216 95.206C80.5096 92.8407 80.155 90.442 80.2683 87.9927C80.2936 87.4567 80.383 86.9234 80.4536 86.298C81.411 86.298 82.3003 86.2887 83.191 86.2994C84.2096 86.3127 85.1523 86.054 86.023 85.5327C86.7256 85.1114 87.2576 84.5327 87.6416 83.8047C88.4776 82.222 89.3296 80.6474 90.1763 79.0687C90.231 78.9674 90.3003 78.874 90.5203 78.7967C90.5203 79.1314 90.5283 79.466 90.5176 79.8007C90.4976 80.5367 90.5043 81.2754 90.4323 82.006C90.283 83.5474 91.0923 84.494 92.3616 85.1127C94.3136 86.0674 96.6296 85.486 97.9456 83.7327C98.3403 83.206 98.6523 82.6154 99.1003 81.8954C99.227 83.03 99.323 84.006 99.4456 84.978C100.236 91.2434 101.806 97.278 104.762 102.901C105.896 105.061 107.25 107.073 108.81 108.951C111.57 112.277 114.186 115.711 116.459 119.395C118.739 123.087 120.616 126.958 121.707 131.179C123.42 137.81 122.754 144.259 120.086 150.507C119.186 152.618 118.09 154.655 116.952 156.653C115.543 159.129 113.554 161.127 111.326 162.885C107.278 166.077 102.687 168.211 97.8123 169.783C93.811 171.075 89.715 171.922 85.5176 172.215C83.4736 172.359 81.4243 172.383 79.407 171.906C78.3296 171.651 77.3603 171.166 76.523 170.447C75.5203 169.59 75.5456 168.699 76.5856 167.895C77.2776 167.361 78.0483 167.023 78.9403 166.906C82.9296 166.377 86.7656 165.329 90.351 163.445C91.283 162.955 92.279 162.59 93.2283 162.133C96.7123 160.457 99.9256 158.386 102.646 155.607C105.848 152.335 107.91 148.483 108.574 143.918C108.871 141.871 108.808 138.211 108.127 136.551C109.279 146.963 104.37 153.865 95.7763 158.71C95.8496 158.549 95.9136 158.381 95.999 158.226C97.2096 156.063 97.4323 153.747 97.059 151.343C95.723 142.762 91.9096 135.338 86.4656 128.677C82.2536 123.521 77.355 119.079 72.1936 114.906C63.655 108.003 57.747 99.29 54.2136 88.906C52.8403 84.874 52.7096 80.8327 53.563 76.7114C53.6056 76.5007 53.6896 76.298 53.799 75.9514C54.063 76.4274 54.2456 76.7914 54.4616 77.1354C54.851 77.7567 55.2083 78.41 55.671 78.974C57.1163 80.7394 59.2056 81.186 61.2803 80.23C61.395 80.1767 61.5096 80.1234 61.7283 80.0234C61.887 80.3367 62.0376 80.638 62.1923 80.938C62.7763 82.078 63.3683 83.214 64.3003 84.1234C65.631 85.426 67.215 85.6567 68.9136 85.0914C69.4336 84.9194 69.8936 84.5114 70.3256 84.1474C70.7043 83.8287 70.8576 83.3834 70.8216 82.8567C70.7776 82.2394 70.811 81.618 70.811 80.998C70.863 80.994 70.9136 80.9887 70.9656 80.9847Z"
     fill="#231F20"
     id="path2"
     style="fill:#ffffff" />
  <path
     d="M83.7677 83.2139C83.7344 82.8645 83.7077 82.6899 83.7037 82.5165C83.5011 74.2739 83.2757 66.0312 83.1117 57.7872C83.0437 54.4005 83.1024 51.0125 83.1264 47.6245C83.1304 47.0219 83.1957 46.4085 83.3237 45.8205C83.6731 44.2125 84.7464 43.3099 86.2984 42.9125C87.8944 42.5019 89.1104 43.0872 90.0691 44.3445C90.8384 45.3565 91.2651 46.5219 91.5757 47.7379C92.0784 49.7032 92.2264 51.7099 92.2024 53.7272C92.1024 61.8445 90.5944 69.6672 87.1424 77.0539C86.2371 78.9912 85.1637 80.8485 84.1624 82.7405C84.0971 82.8645 83.9797 82.9619 83.7677 83.2139Z"
     fill="#231F20"
     id="path3"
     style="fill:#ffffff" />
  <path
     d="M76.8971 84.5508C76.4878 83.9161 75.9744 83.3254 75.6904 82.6388C74.8984 80.7228 74.1118 78.7961 73.4838 76.8214C71.9104 71.8788 70.7611 66.8308 70.1504 61.6761C69.9331 59.8414 69.8624 57.9748 69.8891 56.1254C69.9278 53.5374 70.1144 50.9508 70.2531 48.3654C70.2784 47.8881 70.3518 47.4108 70.4504 46.9428C70.8131 45.2334 71.8424 44.2788 73.5744 44.0188C73.7304 43.9948 73.8931 43.9774 74.0504 43.9921C75.7318 44.1348 77.4864 45.7374 77.7691 47.4028C77.8491 47.8748 77.9038 48.3561 77.9078 48.8334C77.9798 56.3481 78.1078 63.8641 78.0718 71.3788C78.0571 74.4414 77.6838 77.5028 77.4691 80.5641C77.3784 81.8628 77.2771 83.1588 77.1798 84.4574C77.0851 84.4881 76.9918 84.5201 76.8971 84.5508Z"
     fill="#231F20"
     id="path4"
     style="fill:#ffffff" />
  <path
     d="M63.7344 42.9222C64.193 44.4649 64.6837 45.9142 65.053 47.3942C65.8664 50.6595 66.2557 53.9875 66.4304 57.3462C66.8384 65.1369 66.989 72.9329 67.0344 80.7315C67.0357 81.0809 67.0344 81.4315 67.0344 82.0049C66.7637 81.6889 66.5784 81.5395 66.4824 81.3475C65.8224 80.0355 65.1037 78.7462 64.549 77.3902C62.185 71.6075 60.365 65.6595 59.4037 59.4755C58.9304 56.4355 58.661 53.3742 59.329 50.3222C59.761 48.3475 60.405 46.4409 61.5544 44.7489C62.057 44.0089 62.621 43.3169 63.7344 42.9222Z"
     fill="#231F20"
     id="path5"
     style="fill:#ffffff" />
  <path
     d="M73.8543 122.857C74.1236 123.937 74.3903 125.018 74.6649 126.098C74.9889 127.372 75.4516 128.585 76.0903 129.745C76.5809 130.638 76.9556 131.596 77.3676 132.53C78.0756 134.141 78.8783 135.692 79.8369 137.178C80.6809 138.488 81.4476 139.873 82.0463 141.309C82.9329 143.44 83.1263 145.696 82.7703 147.99C82.6116 149.006 82.1196 149.725 81.0716 149.932C80.1356 150.117 79.1943 150.352 78.2489 150.388C76.0023 150.474 74.3236 149.437 73.1743 147.532C72.2463 145.996 71.8129 144.289 71.6316 142.532C70.9529 135.957 71.7823 129.524 73.5209 123.182C73.5516 123.069 73.6129 122.965 73.6609 122.857C73.7249 122.857 73.7903 122.857 73.8543 122.857Z"
     fill="#231F20"
     id="path6"
     style="fill:#ffffff" />
  <path
     d="M94.2389 82.5438C94.2176 82.4252 94.1776 82.3065 94.1776 82.1878C94.1602 77.0705 94.0696 71.9518 94.1522 66.8372C94.2602 60.1532 94.5029 53.4732 94.6976 46.7905C94.7176 46.0878 94.7802 45.3852 94.8536 44.6852C94.9242 44.0118 95.0989 43.3718 95.6589 42.8425C96.3162 43.0078 96.8056 43.4305 97.1442 43.9612C97.6909 44.8212 98.2402 45.6985 98.6269 46.6345C99.8456 49.5772 100.584 52.6692 100.902 55.8198C101.055 57.3505 100.804 58.9505 100.554 60.4905C99.5336 66.7772 98.0549 72.9612 96.1536 79.0398C95.8869 79.8905 95.5282 80.7172 95.1616 81.5318C94.9842 81.9252 94.6896 82.2665 94.4482 82.6318C94.3789 82.6025 94.3082 82.5732 94.2389 82.5438Z"
     fill="#231F20"
     id="path7"
     style="fill:#ffffff" />
  <path
     d="M63.3769 115.914C63.5383 116.493 63.7089 117.069 63.8583 117.649C65.4476 123.803 66.9809 129.973 68.0489 136.243C68.3969 138.287 68.6116 140.357 68.8036 142.422C68.8849 143.303 68.8129 144.214 68.6983 145.097C68.3596 147.703 66.0089 148.741 63.7956 147.29C62.9956 146.766 62.4609 146.015 62.0263 145.185C61.3236 143.839 60.9249 142.394 60.6716 140.909C60.0036 136.993 60.1089 133.071 60.7129 129.166C61.2796 125.506 61.9436 121.861 62.5863 118.211C62.7236 117.431 62.9529 116.667 63.1396 115.897C63.2183 115.902 63.2983 115.909 63.3769 115.914Z"
     fill="#231F20"
     id="path8"
     style="fill:#ffffff" />
  <path
     d="M58.422 76.8203C58.2326 76.535 58.058 76.3163 57.9313 76.0723C55.0046 70.471 52.6193 64.6643 51.374 58.439C51.022 56.6803 50.826 54.9003 50.9353 53.1016C51.0993 50.423 51.2326 47.7416 51.47 45.0696C51.5566 44.095 51.8686 43.1336 52.154 42.1896C52.29 41.7443 52.5513 41.3083 52.85 40.9456C53.7166 39.8936 54.818 39.9563 55.582 41.067C55.89 41.515 56.174 41.9776 56.458 42.4416C56.9873 43.3056 57.2166 44.2243 57.21 45.2616C57.158 52.583 57.274 59.903 57.6246 67.2163C57.7753 70.343 57.9486 73.4736 58.5006 76.5643C58.5086 76.6123 58.47 76.6683 58.422 76.8203Z"
     fill="#231F20"
     id="path9"
     style="fill:#ffffff" />
  <path
     d="M102.395 76.5295C103.267 74.0348 103.185 71.4242 103.236 68.8522C103.367 62.3002 103.38 55.7442 103.417 49.1895C103.427 47.6882 103.367 46.1855 103.289 44.6842C103.256 44.0388 103.359 43.4455 103.793 42.9908C104.652 42.0935 105.556 41.2388 106.457 40.3855C106.839 40.0228 107.28 40.1348 107.553 40.4922C107.916 40.9642 108.253 41.4882 108.464 42.0428C109.06 43.6082 109.257 45.2655 109.421 46.9202C109.565 48.3828 109.665 49.8508 109.753 51.3188C109.903 53.7975 109.523 56.2322 109.029 58.6455C107.988 63.7322 106.456 68.6695 104.379 73.4308C104.023 74.2495 103.579 75.0308 103.151 75.8162C102.989 76.1122 102.756 76.3708 102.556 76.6455C102.503 76.6068 102.448 76.5682 102.395 76.5295Z"
     fill="#231F20"
     id="path10"
     style="fill:#ffffff" />
  <path
     d="M116.642 82.8688C116.933 82.9888 117.058 83.0195 117.159 83.0862C120.318 85.1542 123.415 87.3062 126.163 89.9155C126.579 90.3102 126.954 90.7502 127.338 91.1782C128.067 91.9942 128.459 92.9222 128.47 94.0475C128.489 96.0275 128.598 98.0075 128.641 99.9875C128.651 100.528 128.53 101.069 128.522 101.61C128.506 102.808 126.795 103.713 125.778 103.189C125.221 102.902 124.638 102.562 124.239 102.098C123.663 101.426 123.146 100.666 122.774 99.8648C120.574 95.1395 118.661 90.2982 117.183 85.2942C116.962 84.5462 116.839 83.7675 116.642 82.8688Z"
     fill="#231F20"
     id="path11"
     style="fill:#ffffff" />
  <path
     d="M46.0752 84.1693C45.9405 84.4439 45.8125 84.7239 45.6685 84.9933C45.1739 85.9239 44.6765 86.8546 44.1725 87.7813C42.7952 90.3173 42.0499 93.0119 41.8232 95.9053C41.6272 98.4173 41.1659 100.908 40.7925 103.404C40.6392 104.425 39.4605 105.535 38.4272 105.583C38.0179 105.601 37.5352 105.431 37.1939 105.192C36.8165 104.927 36.4885 104.527 36.2645 104.116C34.3859 100.672 33.8765 97.0613 35.1432 93.2973C35.8685 91.1399 37.2112 89.3799 39.1019 88.1346C41.1805 86.7653 43.3565 85.5413 45.4925 84.2586C45.6272 84.1773 45.7819 84.1306 45.9285 84.0679C45.9779 84.1013 46.0259 84.1359 46.0752 84.1693Z"
     fill="#231F20"
     id="path12"
     style="fill:#ffffff" />
  <path
     d="M49.0098 70.9229C48.4978 70.5482 48.2524 70.0015 48.0084 69.4642C46.5618 66.2869 45.3871 63.0069 44.5471 59.6229C44.0018 57.4269 43.5884 55.1909 43.2284 52.9562C42.8178 50.3949 43.2578 47.8549 43.6658 45.3295C43.8431 44.2269 44.0458 43.1229 44.3364 42.0469C44.7858 40.3802 45.4844 39.8548 47.3858 39.6468C48.6324 50.0229 48.8151 60.4535 49.0098 70.9229Z"
     fill="#231F20"
     id="path13"
     style="fill:#ffffff" />
  <path
     d="M114.297 97.9127C115.745 99.014 117.161 100.002 118.473 101.114C120.055 102.455 121.573 103.875 123.071 105.311C123.954 106.158 124.602 107.193 125.015 108.358C125.537 109.83 126.145 111.279 126.558 112.782C127.015 114.446 126.459 115.07 124.733 114.958C123.205 114.858 121.674 114.713 120.158 114.495C118.278 114.226 117.094 113.11 116.722 111.242C116.422 109.741 116.265 108.21 115.962 106.709C115.754 105.683 115.451 104.67 115.11 103.681C114.554 102.067 114.225 100.417 114.089 98.722C114.078 98.5967 114.093 98.466 114.118 98.342C114.135 98.2527 114.187 98.17 114.297 97.9127Z"
     fill="#231F20"
     id="path14"
     style="fill:#ffffff" />
  <path
     d="M111.53 71.6654C111.621 70.1401 111.703 68.6147 111.803 67.0894C112.026 63.6761 112.274 60.2654 112.482 56.8507C112.661 53.9147 112.805 50.9774 112.95 48.0401C113.005 46.9547 112.979 45.8641 113.063 44.7814C113.138 43.8001 113.253 42.8121 113.462 41.8507C113.581 41.3054 113.867 40.7734 114.174 40.2961C114.795 39.3281 116.023 39.4121 116.534 40.4561C116.739 40.8774 116.849 41.3627 116.914 41.8321C117.189 43.7934 117.545 45.7521 117.647 47.7241C117.738 49.4681 117.677 51.2481 117.434 52.9774C116.721 58.0867 115.443 63.0681 113.641 67.9041C113.218 69.0361 112.641 70.1121 112.121 71.2081C112.031 71.3974 111.878 71.5587 111.754 71.7334C111.679 71.7107 111.605 71.6881 111.53 71.6654Z"
     fill="#231F20"
     id="path15"
     style="fill:#ffffff" />
  <path
     d="M39.7826 37.1261C39.8973 37.9688 39.9826 38.6595 40.0866 39.3475C40.6346 42.9315 40.7253 46.5381 40.6746 50.1568C40.6253 53.6755 40.6493 57.1955 40.64 60.7141C40.64 61.0555 40.64 61.3981 40.64 61.8555C40.0426 61.6221 39.7853 61.2181 39.516 60.8488C37.972 58.7435 37.0133 56.3821 36.6866 53.8035C36.4133 51.6488 36.2813 49.4755 36.116 47.3075C36.02 46.0661 35.9146 44.8181 35.9386 43.5755C35.9546 42.6901 36.1213 41.7955 36.3186 40.9261C36.7346 39.0915 37.9986 37.9835 39.7826 37.1261Z"
     fill="#231F20"
     id="path16"
     style="fill:#ffffff" />
  <path
     d="M46.7455 98.1995C46.7722 98.5409 46.8268 98.8822 46.8202 99.2222C46.7575 102.706 46.7228 106.192 46.5988 109.674C46.5455 111.193 46.0802 112.634 45.1748 113.888C44.3362 115.05 43.2068 115.574 41.7602 115.332C40.7402 115.16 40.0935 114.554 39.7788 113.598C39.3948 112.432 39.4042 111.238 39.9215 110.13C41.2868 107.208 42.6868 104.3 44.1255 101.413C44.5495 100.56 45.1335 99.7835 45.6802 98.9969C45.9082 98.6675 46.2308 98.4049 46.5095 98.1102C46.5882 98.1409 46.6668 98.1702 46.7455 98.1995Z"
     fill="#231F20"
     id="path17"
     style="fill:#ffffff" />
  <path
     d="M120.735 60.1274C120.695 58.9847 120.644 57.8434 120.618 56.7007C120.478 50.5047 120.342 44.3074 120.207 38.11C120.198 37.7007 120.168 37.3034 120.487 36.9407C120.83 36.5514 121.131 36.4407 121.643 36.6474C123.298 37.3154 124.136 38.5767 124.388 40.278C124.5 41.0354 124.592 41.8034 124.591 42.566C124.588 44.738 124.658 46.9194 124.468 49.0767C124.203 52.122 123.168 54.99 121.998 57.7994C121.667 58.59 121.308 59.3674 120.962 60.1514C120.886 60.1434 120.811 60.1354 120.735 60.1274Z"
     fill="#231F20"
     id="path18"
     style="fill:#ffffff" />
  <path
     d="M48.0309 131.435C47.6056 131.149 47.1456 130.957 46.8483 130.62C45.9603 129.619 45.0469 128.62 44.3096 127.511C43.1763 125.808 43.0616 123.917 43.7323 121.996C43.9416 121.396 44.2016 120.804 44.5096 120.248C46.1829 117.229 47.8749 114.22 49.5696 111.213C49.8909 110.641 50.2536 110.092 50.7269 109.595C49.8363 116.809 48.9456 124.024 48.0309 131.435Z"
     fill="#231F20"
     id="path19"
     style="fill:#ffffff" />
  <path
     d="M53.7284 125.715C54.2804 128.251 54.7271 130.565 55.2964 132.849C55.8471 135.055 56.6911 137.141 58.0511 139.015C58.7138 139.927 58.9098 141.073 58.8964 142.206C58.8884 143.029 58.5364 143.406 57.7391 143.642C54.5911 144.577 51.5938 142.502 51.4578 139.23C51.2871 135.142 51.9058 131.149 53.0951 127.242C53.2391 126.77 53.4724 126.326 53.7284 125.715Z"
     fill="#231F20"
     id="path20"
     style="fill:#ffffff" />
  <path
     d="M120.143 71.2257C120.255 71.279 120.377 71.3203 120.479 71.3883C123.581 73.4377 126.525 75.679 129.087 78.3883C130.325 79.695 131.405 81.119 132.181 82.7483C132.426 83.263 132.625 83.8137 132.747 84.3683C132.922 85.1537 132.629 85.579 131.838 85.7737C131.501 85.8577 131.139 85.8937 130.794 85.8697C129.999 85.815 129.199 85.7617 128.418 85.6137C127.115 85.3643 126.158 84.611 125.561 83.419C125.39 83.0777 125.215 82.731 125.103 82.367C124.438 80.219 123.394 78.2417 122.383 76.247C121.563 74.6283 120.781 72.991 119.982 71.3617C120.035 71.3163 120.09 71.271 120.143 71.2257Z"
     fill="#231F20"
     id="path21"
     style="fill:#ffffff" />
  <path
     d="M85.1559 134.352C85.3945 134.624 85.5452 134.771 85.6665 134.939C88.2612 138.532 90.0412 142.51 91.2145 146.768C91.6185 148.234 90.6719 149.399 89.1532 149.327C87.3119 149.24 85.9279 148.392 85.0452 146.766C84.4065 145.59 84.1679 144.306 84.0892 142.986C83.9519 140.668 84.2759 138.392 84.7492 136.134C84.8652 135.586 84.9985 135.04 85.1559 134.352Z"
     fill="#231F20"
     id="path22"
     style="fill:#ffffff" />
  <path
     d="M129.361 54.1133C129.25 53.2413 129.144 52.4026 129.038 51.5626C128.469 47.0333 127.886 42.5053 127.342 37.9733C127.256 37.2533 127.24 36.4946 127.369 35.7866C127.562 34.7186 128.146 34.4466 129.19 34.7413C130.018 34.9746 130.557 35.5319 130.964 36.2506C131.492 37.1826 131.722 38.2093 131.889 39.2533C131.93 39.5053 131.964 39.7599 131.978 40.0146C132.092 42.1493 132.3 44.2839 132.286 46.4173C132.27 49.0733 131.28 51.4626 129.874 53.6866C129.806 53.7933 129.722 53.8919 129.633 53.9826C129.593 54.0239 129.524 54.0373 129.361 54.1133Z"
     fill="#231F20"
     id="path23"
     style="fill:#ffffff" />
  <path
     d="M31.1796 54.4414C30.5609 53.4481 30.3649 52.5067 30.1823 51.5787C29.4569 47.8961 29.1409 44.1774 29.3823 40.4241C29.4249 39.7574 29.5743 39.0974 29.6649 38.4334C29.8836 36.8454 30.9329 35.8267 32.1089 34.9081C32.5596 34.5574 32.9369 34.6881 33.2409 35.2867C33.8289 36.4454 34.1663 37.6907 34.1369 38.9801C34.1103 40.1867 34.0076 41.4107 33.7676 42.5921C32.9983 46.3774 32.1503 50.1481 31.3316 53.9241C31.3049 54.0467 31.2623 54.1641 31.1796 54.4414Z"
     fill="#231F20"
     id="path24"
     style="fill:#ffffff" />
  <path
     d="M40.8709 73.884C40.8709 74.2013 40.9002 74.3573 40.8669 74.4987C39.9949 78.128 39.0896 81.744 37.8042 85.2573C37.1589 87.0187 35.9869 88.2267 34.3549 89.0427C34.0176 89.2107 33.6402 89.3333 33.2682 89.3853C32.5736 89.4813 32.1362 89.1707 32.0789 88.4653C32.0242 87.8053 32.0202 87.112 32.1629 86.4693C32.4029 85.384 32.7402 84.316 33.1029 83.2627C33.4362 82.292 33.9509 81.412 34.6429 80.636C36.3402 78.7307 38.0189 76.808 39.7216 74.9053C40.0309 74.56 40.4176 74.2827 40.8709 73.884Z"
     fill="#231F20"
     id="path25"
     style="fill:#ffffff" />
  <path
     d="M134.987 31.7171C135.237 31.8931 135.535 32.0278 135.732 32.2504C136.489 33.1118 137.269 33.9638 137.929 34.8971C138.223 35.3118 138.345 35.9064 138.388 36.4318C138.669 39.8318 138.192 43.1171 136.779 46.2424C136.668 46.4891 136.509 46.7131 136.184 46.9131C135.695 41.8918 135.205 36.8691 134.716 31.8478C134.807 31.8038 134.896 31.7611 134.987 31.7171Z"
     fill="#231F20"
     id="path26"
     style="fill:#ffffff" />
  <path
     d="M24.4594 47.9785C23.1501 47.1652 22.1808 44.4172 22.2608 41.8972C22.3728 38.3772 23.9394 35.6812 27.1128 33.6585C25.5874 38.4238 24.4488 43.0665 24.4594 47.9785Z"
     fill="#231F20"
     id="path27"
     style="fill:#ffffff" />
</svg>
