<svg width="151" height="166" viewBox="0 0 151 166" fill="none" xmlns="http://www.w3.org/2000/svg"> <path d="M118.557 49.3401C119.088 49.3401 119.571 49.6561 119.781 50.1468L126.555 65.8975C126.555 58.3975 126.549 45.5801 126.549 40.5495L92.7213 40.4601L100.916 49.3401H118.557Z" fill="#231F20"></path> <path d="M38.3333 14.6228C36.924 13.8842 35.3413 13.4588 33.6586 13.4588C31.7133 13.4588 29.896 14.0255 28.3333 14.9962V33.7842H38.3333V14.6228Z" fill="#231F20"></path> <path d="M41 16.61V35.118C41 35.854 40.404 36.4513 39.6667 36.4513H27C26.2627 36.4513 25.6667 35.854 25.6667 35.118V17.3487C24.0933 19.2847 23.14 21.794 23.14 24.5407C23.14 24.9713 23.164 59.7313 23.208 60.1473C23.8067 65.6687 28.2573 69.958 33.6587 69.958C39.0707 69.958 43.528 65.6527 44.1147 60.118C44.156 59.71 44.18 24.962 44.18 24.5407C44.18 21.43 42.9587 18.6233 41 16.61Z" fill="#231F20"></path> <path d="M62.4765 8.09816C60.9898 7.24883 59.2858 6.7675 57.4765 6.7675C55.6672 6.7675 53.9632 7.24883 52.4765 8.09816V27.1182H62.4765V8.09816Z" fill="#231F20"></path> <path d="M65.1432 10.278V28.4513C65.1432 29.1873 64.5472 29.7847 63.8098 29.7847H51.1432C50.4058 29.7847 49.8098 29.1873 49.8098 28.4513V10.278C48.0472 12.2607 46.9578 14.918 46.9578 17.8513C46.9578 18.2807 46.9818 59.7313 47.0258 60.1473C47.6245 65.67 52.0752 69.958 57.4765 69.958C62.8885 69.958 67.3458 65.6527 67.9325 60.118C67.9738 59.71 67.9978 18.27 67.9978 17.8513C67.9978 14.918 66.9085 12.2593 65.1432 10.278Z" fill="#231F20"></path> <path d="M108.919 4.9605C107.433 4.1125 105.731 3.63117 103.922 3.63117C102.113 3.63117 100.409 4.11384 98.9192 4.96317V24.4512H108.919V4.9605Z" fill="#231F20"></path> <path d="M111.586 7.13953V25.7835C111.586 26.5195 110.99 27.1169 110.253 27.1169H97.5858C96.8485 27.1169 96.2525 26.5195 96.2525 25.7835V7.14353C94.4898 9.12486 93.4005 11.7822 93.4005 14.7142C93.4005 14.9782 93.4112 30.2515 93.4272 37.4502H94.5938H114.414C114.433 30.2542 114.441 14.9702 114.441 14.7142C114.441 11.7809 113.351 9.12219 111.586 7.13953Z" fill="#231F20"></path> <path d="M85.8984 1.82516C84.4117 0.977155 82.7077 0.494488 80.8984 0.494488C79.089 0.494488 77.385 0.977155 75.8984 1.82516V21.7852H85.8984V1.82516Z" fill="#231F20"></path> <path d="M73.4036 37.454H75.6196H91.401C91.4116 27.122 91.417 11.7807 91.417 11.578C91.417 8.64467 90.3276 5.986 88.565 4.00467V23.118C88.565 23.854 87.969 24.4513 87.2316 24.4513H74.565C73.8276 24.4513 73.2316 23.854 73.2316 23.118V4.00467C71.4663 5.986 70.377 8.64467 70.377 11.578C70.377 12.0073 70.401 59.7313 70.4476 60.1473C71.0463 65.6687 75.497 69.958 80.8983 69.958C84.9503 69.958 88.469 67.5433 90.2236 64.006C89.977 63.982 89.721 63.9713 89.477 63.942C89.357 63.926 89.245 63.9087 89.133 63.8887L89.0463 63.874C88.5596 63.8087 88.0756 63.7367 87.6276 63.6473C87.505 63.6247 87.3903 63.598 87.2783 63.57L87.213 63.5527C86.7583 63.4553 86.305 63.354 85.885 63.2367C85.7836 63.2073 85.6876 63.1767 85.5596 63.1353C85.117 63.002 84.677 62.866 84.2063 62.69C84.1463 62.666 84.0863 62.6433 84.0436 62.622C83.5423 62.4287 83.1303 62.2553 82.729 62.066C82.6796 62.042 82.633 62.018 82.5836 61.9913C82.141 61.778 81.7423 61.566 81.3703 61.3473L81.2916 61.3047L81.2423 61.2687C70.3303 54.75 72.885 40.25 72.997 39.634L73.4036 37.454Z" fill="#231F20"></path> <path d="M76.362 161.34C61.4326 161.34 49.6686 151.291 49.6686 151.291L49.4873 147.884C60.1646 158.261 73.722 158.119 73.722 158.119C51.446 153.673 49.1433 140.105 49.1166 139.605V140.936L48.466 128.673L47.446 119.231L64.558 131.34H87.6673L102.75 119.34V128.673V140.905C101.654 144.488 96.914 154.433 78.45 158.119C78.45 158.119 92.0646 158.261 102.75 147.821V150.088C102.75 150.088 91.2913 161.34 76.362 161.34ZM46.8886 111.507L71.334 128.731H65.638L47.222 116.244L46.8886 111.507ZM102.75 112.34V116.34L86.834 128.785H82.2793L102.75 112.34ZM117.679 52.008H100.334C99.9606 52.008 99.6073 51.8507 99.354 51.5774L88.7793 40.1214H75.6193C75.6193 40.1214 73.1566 53.3907 82.6673 59.0147C82.6793 59.0227 82.69 59.0307 82.706 59.0387C83.0473 59.24 83.4113 59.4307 83.786 59.612C83.8206 59.6267 83.8513 59.6467 83.886 59.664C84.242 59.8307 84.6166 59.9854 85.002 60.1334C85.062 60.1574 85.1193 60.184 85.182 60.2094C85.5473 60.344 85.93 60.4627 86.318 60.5774C86.414 60.6067 86.5006 60.64 86.5966 60.6667C86.9713 60.772 87.37 60.8587 87.7713 60.9454C87.8953 60.972 88.0073 61.0067 88.138 61.0307C88.5446 61.112 88.974 61.1747 89.4113 61.2347C89.5446 61.252 89.6646 61.2787 89.7993 61.2934C90.378 61.364 90.9766 61.416 91.5993 61.4507H112.255C112.255 61.4507 111.665 65.4214 106.898 64.7947L93.138 64.7854C93.138 64.7854 92.1126 66.868 91.4166 67.8334C89.042 71.132 85.11 73.0414 80.898 73.0414C75.9246 73.0414 71.5313 70.2334 69.1326 65.98C66.7086 70.1174 62.3753 72.832 57.4766 72.832C52.446 72.832 48.0073 69.9574 45.6273 65.6227C43.2793 70.076 38.7793 73.0414 33.6593 73.0414C29.526 73.0414 25.794 71.096 23.2713 68C23.1926 76.124 24.182 86.5307 39.2606 103.165H39.258C39.258 103.165 42.7766 108.452 43.222 125.452C43.5126 136.608 44.334 153.119 44.334 153.119C44.334 153.119 59.8913 167.119 79.446 165.564C99.002 164.007 108.05 150.673 108.05 150.673C108.05 150.673 108.558 129.34 108.334 117.28C108.113 105.22 114.441 98.0801 114.441 98.0801L114.414 98.0827C114.719 97.6894 115.039 97.296 115.331 96.8974C115.395 96.8067 115.463 96.712 115.531 96.6214C115.742 96.3267 115.955 96.0307 116.162 95.7334C116.245 95.6134 116.326 95.4907 116.411 95.3707C116.594 95.0974 116.779 94.8267 116.958 94.5534C117.045 94.4254 117.127 94.296 117.211 94.168C117.389 93.892 117.562 93.6187 117.737 93.3427C117.81 93.2227 117.889 93.1027 117.961 92.9827C118.151 92.672 118.338 92.3574 118.523 92.0454C118.57 91.9654 118.619 91.8854 118.667 91.804C118.901 91.4027 119.13 91.0014 119.351 90.6C119.362 90.5814 119.373 90.564 119.381 90.5454C119.589 90.172 119.789 89.7974 119.985 89.4227C120.045 89.3107 120.102 89.1987 120.159 89.0867C120.305 88.8054 120.447 88.5241 120.589 88.2454C120.654 88.1121 120.719 87.9801 120.783 87.8467C120.911 87.5841 121.037 87.3214 121.162 87.0614C121.225 86.9254 121.289 86.792 121.349 86.6587C121.474 86.392 121.597 86.124 121.714 85.8587C121.769 85.7374 121.823 85.6161 121.878 85.4934C122.013 85.1854 122.146 84.8787 122.274 84.5734C122.305 84.4987 122.338 84.4214 122.37 84.3454C122.531 83.9614 122.687 83.5787 122.835 83.1974C122.862 83.1334 122.886 83.0694 122.911 83.0067C123.031 82.696 123.149 82.388 123.266 82.0814C123.31 81.96 123.354 81.84 123.395 81.72C123.49 81.468 123.578 81.22 123.667 80.972C123.711 80.8427 123.755 80.712 123.802 80.5814C123.883 80.3454 123.963 80.1107 124.042 79.876C124.086 79.7467 124.127 79.6174 124.169 79.488C124.245 79.2507 124.323 79.0147 124.393 78.7814C124.43 78.664 124.469 78.5467 124.502 78.4307C124.591 78.1454 124.674 77.8627 124.755 77.5827C124.771 77.524 124.789 77.464 124.805 77.4054C124.903 77.0654 124.998 76.7307 125.086 76.3987C125.107 76.316 125.127 76.2347 125.151 76.1534C125.214 75.908 125.277 75.6654 125.335 75.424C125.365 75.312 125.391 75.2014 125.417 75.0894C125.469 74.8854 125.515 74.6814 125.559 74.4814C125.589 74.3627 125.614 74.244 125.641 74.1254C125.685 73.936 125.725 73.7467 125.766 73.56C125.789 73.4467 125.813 73.3334 125.834 73.2227C125.875 73.028 125.911 72.836 125.947 72.6467C125.966 72.552 125.985 72.4547 126.002 72.3587C126.047 72.12 126.089 71.8827 126.127 71.6507L117.679 52.008Z" fill="#231F20"></path> <path d="M19.341 71.7845H7.22105V34.7805H19.1464C19.1437 32.2005 19.1411 29.8872 19.1411 28.1138H0.554382V78.4512H20.2264C19.7024 76.0818 19.4504 73.8712 19.341 71.7845Z" fill="#231F20"></path> <path d="M118.43 28.1138C118.427 30.4405 118.424 32.7565 118.419 34.7805H143.888V71.7845H130.12C130.115 71.9552 130.102 72.1245 130.075 72.2938C130.034 72.5525 129.987 72.8165 129.93 73.1165L129.903 73.2538L129.88 73.3792C129.839 73.5925 129.796 73.8112 129.755 74.0072L129.682 74.3685C129.68 74.3792 129.664 74.4525 129.662 74.4618L129.55 74.9792C129.518 75.1272 129.484 75.2698 129.46 75.3712C129.408 75.5952 129.356 75.8258 129.302 76.0378L129.279 76.1365L129.222 76.3712C129.159 76.6325 129.091 76.8952 129.02 77.1605C129.018 77.1765 129.003 77.2245 129 77.2418L128.966 77.3752C128.958 77.3978 128.954 77.4205 128.948 77.4445C128.856 77.7752 128.766 78.1112 128.667 78.4512H150.555V28.1138H118.43Z" fill="#231F20"></path> <path d="M39.4375 132.353H7.22148V95.3475H27.9348C26.3415 92.9982 25.0335 90.7822 23.9655 88.6809H0.55481V139.02H39.6948C39.6068 136.84 39.5188 134.577 39.4375 132.353Z" fill="#231F20"></path> <path d="M124.82 88.6799L124.771 88.7866L124.722 88.8906C124.607 89.1306 124.492 89.3706 124.375 89.6066L124.315 89.7319L124.17 90.0265C124.02 90.3225 123.867 90.6199 123.703 90.9399L123.643 91.0545L123.531 91.2692C123.323 91.6746 123.104 92.0772 122.904 92.4412C122.888 92.4706 122.872 92.4986 122.856 92.5292C122.62 92.9572 122.375 93.3839 122.12 93.8239L122.026 93.9799L121.966 94.0812C121.771 94.4092 121.575 94.7399 121.383 95.0559L121.219 95.3186L121.2 95.3479H143.888V132.352H112.348C112.328 134.652 112.299 136.909 112.268 139.019H150.555V88.6799H124.82Z" fill="#231F20"></path> </svg>