<svg width="149" height="190" viewBox="0 0 149 190" fill="none" xmlns="http://www.w3.org/2000/svg"> <path d="M143.06 79.5944L108.807 53.9757L73.7999 66.1117L91.2665 79.173L100.832 86.3277L122.835 102.785L119.256 107.566L97.2545 91.1117L93.2479 96.4677C96.6945 99.0464 101.616 102.728 106.16 106.129L104.013 108.998C99.4652 105.594 94.5465 101.916 91.1012 99.3384L68.4919 129.569C71.9399 132.146 76.8625 135.826 81.4079 139.225L79.2612 142.094C74.7199 138.7 69.7959 135.017 66.3465 132.436L57.6185 144.108L48.0532 136.952L57.3319 124.545C51.5079 116.774 51.2065 105.812 57.3172 97.6397C63.4279 89.469 74.0319 86.661 83.1305 90.0504L87.6879 83.957L66.9865 68.473L37.8825 78.5637L3.13453 125.025C-1.27614 130.921 -0.0721442 139.277 5.82519 143.686L63.0905 186.517C68.9879 190.928 77.3439 189.722 81.7545 183.824L145.751 98.257C150.161 92.361 148.959 84.005 143.06 79.5944Z" fill="#231F20"></path> <path d="M60.1868 99.7842C55.2748 106.349 55.3015 115.061 59.5921 121.521L80.8708 93.0722C73.4601 90.7828 65.0975 93.2175 60.1868 99.7842Z" fill="#231F20"></path> <path d="M22.6549 28.7571C23.3483 30.7585 22.2883 32.9425 20.2896 33.6345C18.2896 34.3291 16.1056 33.2705 15.4109 31.2691C14.7176 29.2691 15.7789 27.0851 17.7776 26.3918C19.7763 25.6985 21.9616 26.7571 22.6549 28.7571Z" fill="#231F20"></path> <path d="M38.9447 19.708C39.5433 21.4333 38.6287 23.3173 36.902 23.916C35.1753 24.5147 33.2913 23.6013 32.6927 21.8747C32.094 20.148 33.0087 18.2627 34.734 17.6653C36.4607 17.0667 38.346 17.98 38.9447 19.708Z" fill="#231F20"></path> <path d="M64.7805 42.9125C62.2339 43.7952 59.4512 42.4472 58.5685 39.8978C57.6845 37.3498 59.0352 34.5672 61.5819 33.6845C64.1299 32.8018 66.9125 34.1512 67.7965 36.6992C68.6792 39.2472 67.3285 42.0285 64.7805 42.9125ZM98.5005 21.1058L93.5365 6.78849C93.5365 6.78849 89.4499 25.0205 80.3152 28.1872C71.1819 31.3538 52.8125 8.38316 52.8125 8.38316C52.8125 8.38316 52.6019 37.7965 43.4685 40.9618C34.3339 44.1285 19.8392 32.3378 19.8392 32.3378L24.8032 46.6565C23.0619 47.8752 22.2485 50.1272 22.9792 52.2365C23.7099 54.3445 25.7432 55.6085 27.8659 55.4925L30.7032 63.6738L67.5512 50.9005L104.399 38.1245L101.562 29.9392C103.303 28.7192 104.117 26.4685 103.385 24.3618C102.654 22.2525 100.622 20.9885 98.5005 21.1058Z" fill="#231F20"></path> <path d="M76.3783 6.72892C76.9769 8.45559 76.0623 10.3409 74.3356 10.9396C72.6103 11.5383 70.7249 10.6236 70.1263 8.89692C69.5276 7.17025 70.4423 5.28625 72.1689 4.68759C73.8943 4.08892 75.7796 5.00225 76.3783 6.72892Z" fill="#231F20"></path> <path d="M96.3515 3.20732C97.0448 5.20865 95.9848 7.39265 93.9861 8.08465C91.9861 8.77932 89.8021 7.72065 89.1075 5.71932C88.4141 3.71932 89.4755 1.53532 91.4741 0.841986C93.4728 0.148653 95.6581 1.20732 96.3515 3.20732Z" fill="#231F20"></path> <path d="M55.7909 5.27551C56.4843 7.27551 55.4243 9.46084 53.4243 10.1528C51.4256 10.8462 49.2403 9.78618 48.5469 7.78618C47.8536 5.78618 48.9136 3.60084 50.9136 2.90884C52.9123 2.21551 55.0976 3.27551 55.7909 5.27551Z" fill="#231F20"></path> <path d="M42.5937 38.4423C44.3711 37.8263 45.8257 35.2543 46.9684 31.7023C41.2951 26.9316 36.2577 20.637 36.2577 20.637C36.2577 20.637 36.1884 30.0436 34.3057 37.6823C37.3031 38.7623 40.2657 39.2503 42.5937 38.4423Z" fill="#231F20"></path> <path d="M79.4427 25.6686C81.736 24.8713 83.7333 22.7006 85.4053 20.0433C79.172 15.2113 73.252 7.8113 73.252 7.8113C73.252 7.8113 73.192 15.7806 71.7133 23.0033C74.8573 25.138 77.64 26.294 79.4427 25.6686Z" fill="#231F20"></path> <path d="M111.971 48.26L31.0293 76.3213L27.9 67.292L108.84 39.232L111.971 48.26Z" fill="#231F20"></path> </svg>