<svg width="173" height="171" viewBox="0 0 173 171" fill="none" xmlns="http://www.w3.org/2000/svg"> <path d="M46.4935 97.6717C48.4802 99.0757 51.5322 100.478 54.6815 100.478C58.0722 100.478 59.8629 98.541 59.8629 95.5997C59.8629 92.793 58.3135 91.189 54.3909 89.2503C48.9655 86.645 45.4282 82.501 45.4282 75.9517C45.4282 68.265 50.0775 62.3837 57.7815 62.3837C61.4629 62.3837 64.1762 63.453 66.1135 64.6557L64.4655 72.877C63.1575 72.0077 60.8335 70.737 57.6349 70.737C54.4389 70.737 52.8882 72.7423 52.8882 75.0823C52.8882 77.9557 54.7295 79.2263 58.9442 81.4317C64.7082 84.3717 67.4202 88.5157 67.4202 94.865C67.4202 102.417 63.2055 108.833 54.2442 108.833C50.5149 108.833 46.8335 107.496 44.9922 106.093L46.4935 97.6717Z" fill="#231F20"></path> <path d="M114.359 62.5028V80.2335H119.865V62.5028H127.637V108.646H119.865V89.3388H114.359V108.646H110.834L106.391 97.9895V62.5028H114.359Z" fill="#231F20"></path> <path d="M98.5863 51.0314L101.784 40.4434L91.5929 46.2368L86.9983 36.4461L82.4023 46.2368L72.2129 40.4434L75.4089 51.0314L63.8209 50.9821L72.2129 58.0234H86.9983H101.784L110.174 50.9821L98.5863 51.0314Z" fill="#231F20"></path> <path d="M86.9979 127.439C86.9979 127.439 76.3526 128.339 69.6059 121.893L78.8299 98.6174L95.1699 98.6254L104.39 121.893C97.6419 128.339 86.9979 127.439 86.9979 127.439ZM93.3912 82.0001V68.8801H96.9872V62.2201H86.9979H77.0086V68.8801H80.6046V82.0001L63.8206 124.357C72.8112 132.949 86.9979 131.749 86.9979 131.749C86.9979 131.749 101.183 132.949 110.175 124.357L93.3912 82.0001Z" fill="#231F20"></path> <path d="M30.2735 85.3525C30.2735 54.2072 55.5215 28.9592 86.6668 28.9592C117.812 28.9592 143.06 54.2072 143.06 85.3525C143.06 116.498 117.812 141.747 86.6668 141.747C55.5215 141.747 30.2735 116.498 30.2735 85.3525ZM153.935 101.946C155.039 97.4538 155.701 92.7912 155.883 88.0018L156.345 87.9125L172.78 83.9512L171.247 69.3632L153.928 68.7325C152.777 64.0592 151.165 59.5658 149.119 55.3192L149.16 55.2858L161.812 44.0712L153.609 31.9112L138.409 39.2978C135.173 35.6645 131.563 32.3738 127.633 29.4885L133.405 14.0085L120.455 7.12317L110.785 20.3912C106.297 18.7245 101.589 17.5125 96.7175 16.8045L94.3335 0.0205027H79.6668L77.4548 16.6978C72.3535 17.3765 67.4228 18.5912 62.7348 20.3165L53.1201 7.12317L40.1695 14.0085L45.8895 29.3525C41.9175 32.2498 38.2641 35.5565 34.9948 39.2152L19.9655 31.9112L11.7615 44.0712L24.2881 55.1738C22.2081 59.4672 20.5668 64.0112 19.4028 68.7418L2.32813 69.3632L0.7948 83.9512L17.2295 87.9125L17.4495 87.9552C17.6281 92.7778 18.2948 97.4725 19.4095 101.994L19.3735 102.002L4.3388 110.711L9.83347 124.311L26.2028 120.094L26.6535 119.955C29.0161 124.043 31.7775 127.869 34.8948 131.374L34.7108 131.527L25.5241 146.275L36.7615 155.705L49.2348 144.295L49.6335 143.895C53.0948 146.089 56.7601 147.986 60.6015 149.546L60.4788 149.845L59.2921 167.178L73.6401 170.229L79.2975 154.298L79.3135 154.243C81.7308 154.498 84.1828 154.635 86.6668 154.635C89.2308 154.635 91.7601 154.486 94.2521 154.214L94.2775 154.298L99.9335 170.229L114.283 167.178L113.095 149.845L112.939 149.465C116.76 147.898 120.404 145.995 123.847 143.801L124.34 144.295L136.812 155.705L148.049 146.275L138.863 131.527L138.539 131.258C141.632 127.766 144.371 123.959 146.716 119.893L147.371 120.094L163.74 124.311L169.236 110.711L154.2 102.002L153.935 101.946Z" fill="#231F20"></path> </svg>