<svg width="214" height="186" viewBox="0 0 214 186" fill="none" xmlns="http://www.w3.org/2000/svg"> <path d="M11 30.543L95.716 28.5123C95.716 28.5123 132.777 80.6976 137.223 83.3976C137.223 83.3976 126.555 77.7763 127.444 90.6043C127.444 90.6043 133.223 85.6536 141.667 88.7656C150.111 91.8763 182.111 101.156 182.111 101.156V96.6803C182.111 96.6803 188.944 102.599 189.944 104.099C190.944 105.599 192.277 110.266 188.277 112.932C188.277 112.932 190.111 108.432 182.611 105.932C177.699 104.295 147.277 96.155 139.444 115.266C139.444 115.266 137.777 112.099 138.611 110.599C138.611 110.599 131.277 116.599 124.277 117.932C117.277 119.266 98.6107 120.599 99.1107 126.766C99.6107 132.932 103.944 133.766 107.444 134.766C107.444 134.766 118.944 137.099 119.944 137.266C120.944 137.432 130.277 140.266 126.611 148.766C126.611 148.766 123.777 140.432 114.777 140.766C105.777 141.099 102.277 145.432 105.277 148.766C105.277 148.766 99.6107 148.799 102.444 140.932L102.611 137.766L97.6107 139.099L67.944 109.932L0.444 108.932C0.444 108.932 15.444 93.0003 26.2773 93.0003H95.716L78.7773 101.599C78.7773 101.599 108.307 105.75 107.444 82.2656C106.611 59.599 78.944 61.599 73.944 65.599L11 30.543Z" fill="#231F20"></path> <path d="M135.777 76.431C135.777 76.431 143.111 85.0977 153.611 88.931C164.111 92.7643 179.944 99.0977 179.944 99.0977C179.944 99.0977 179.111 91.431 172.777 88.7643C166.444 86.0977 140.111 81.0977 135.777 76.431Z" fill="#231F20"></path> <path d="M108.571 41.8743L115.666 27.433L119.422 45.3316L121.555 27.0983L147.822 78.913C151.912 80.177 156.486 81.393 160.186 82.3623L118.111 0.764972L102.123 32.905C104.268 35.905 106.428 38.9103 108.571 41.8743Z" fill="#231F20"></path> <path d="M95.778 67.9167C92.2447 66.2767 88.4167 65.8447 85.7687 65.7807L73.5527 90.334H84.7647L95.778 67.9167Z" fill="#231F20"></path> <path d="M130.527 163.931L133.945 157.182L125.027 157.598L122.027 150.265L119.027 157.598L110.11 157.182L113.527 163.931L107.278 170.014L115.11 171.681L115.277 180.265L122.027 175.098L128.778 180.265L128.945 171.681L136.777 170.014L130.527 163.931Z" fill="#231F20"></path> <path d="M172.534 106.31C169.563 105.83 166.242 105.478 162.935 105.478C162.379 105.478 161.842 105.494 161.307 105.511L192.583 167.21L173.473 158.098L190.361 176.292L130.847 176.654L130.777 180.303L130.701 184.255L127.562 181.852L122.027 177.616L116.493 181.852L113.354 184.255L113.278 180.303L113.207 176.679L49.2219 176.292L66.1112 158.098L46.9992 167.21L71.5565 117.222L66.8365 112.582L62.5179 112.518L26.1112 185.703H117.555H122.027H213.473L172.534 106.31Z" fill="#231F20"></path> </svg>