<svg width="174" height="174" viewBox="0 0 174 174" fill="none" xmlns="http://www.w3.org/2000/svg"> <path d="M82.6748 126.724C81.6335 126.834 79.2561 126.232 79.1441 125.186C79.0321 124.143 81.2268 123.05 82.2708 122.938C83.3148 122.828 84.2561 123.584 84.3681 124.628C84.4775 125.675 83.7215 126.61 82.6748 126.724ZM66.1441 133.591C65.8135 134.003 65.2081 134.066 64.7975 133.735C64.3828 133.402 64.3201 132.798 64.6508 132.386C64.9868 131.975 66.3201 131.703 66.7321 132.034C67.1441 132.367 66.4775 133.178 66.1441 133.591ZM129 19.0563C145.896 34.567 150.42 58.515 142.049 78.5217C139.787 83.3497 135.948 83.2657 135.24 83.203C134.831 83.1443 134.409 83.063 133.951 82.9377C128.964 81.5763 129.661 75.1377 129.661 75.1377C129.417 70.6403 131.841 70.363 133.407 69.123C134.972 67.883 137.055 67.7523 138.357 65.3337C139.656 62.9177 136.745 63.0017 135.937 64.0363C135.131 65.0683 130.271 68.7777 128.607 68.851C126.943 68.9203 126.929 63.2723 126.729 60.9377C126.529 58.6003 124.948 57.183 123.216 57.0003C121.481 56.8203 123.669 60.6803 124.193 63.2017C124.713 65.7243 124.803 67.0563 123.052 67.2057C121.297 67.3563 118.107 63.6057 116.693 62.1937C115.279 60.7857 113.011 61.2377 113.268 63.995C113.527 66.7497 119.276 67.9043 120.756 68.155C122.237 68.407 124.748 68.0523 123.529 70.551C122.311 73.0537 118.612 72.2697 115.888 72.5003C113.164 72.7337 110.961 73.9097 111.852 75.787C112.743 77.6657 120.136 74.6803 121.423 74.007C122.703 73.3323 124.628 71.6137 125.245 72.479C125.86 73.3457 124.653 78.507 124 82.707C123.347 86.9043 128.084 89.7483 128.084 89.7483C128.084 89.7483 127.727 89.7403 127.027 89.7363C120.263 88.5283 112.256 91.4883 107.817 94.9657C103.625 98.2523 97.7055 107.279 95.6721 114.792C95.2601 115.156 95.0761 113.867 95.0761 113.867C95.0761 113.867 94.9015 109.623 93.4255 106.386C91.9455 103.143 87.0441 106.104 85.0681 107.238C83.0961 108.372 82.2161 110.727 79.5135 108.584C76.8135 106.435 79.4455 103.93 80.4068 103.071C81.3695 102.211 84.0415 100.454 81.9775 98.8417C79.9068 97.2297 76.4401 101.266 76.2215 103.662C76.0028 106.06 75.7161 108.2 74.7708 108.73C73.8281 109.258 72.1415 108.248 68.7628 104.818C65.3881 101.388 64.3695 103.24 64.3695 103.24C63.3961 108.664 71.2895 110.112 72.4868 110.927C73.6855 111.74 74.7295 112.38 73.4948 113.639C72.2601 114.896 70.2268 114.2 67.2561 113.864C64.2841 113.531 62.4668 114.839 65.6255 117.678C68.7868 120.514 76.0761 113.536 76.6801 113.156C77.2815 112.774 77.7841 114.214 77.7161 115.196C77.6508 116.183 75.1561 116.558 75.0655 118.211C74.9695 119.867 79.4241 117.464 80.0735 116.255C80.7215 115.047 81.9455 112.542 81.9455 112.542C84.6201 110.782 85.3001 110.49 86.8308 111.326C87.9255 111.922 88.7135 113.258 88.4095 115.732C88.0988 118.206 92.3281 120.198 90.2601 121.151C89.6508 121.432 88.6508 121.214 87.8935 120.975C87.5708 120.847 87.2428 120.724 86.9068 120.607C86.8935 120.604 86.8655 120.591 86.8655 120.591L86.8681 120.596C84.4801 119.779 81.7735 119.298 79.5575 120.091C74.3255 121.974 59.0788 129.588 59.0548 136.951C59.0548 136.951 59.4841 140.534 63.9401 143.068C64.0495 143.12 64.1561 143.17 64.2628 143.216C66.8361 144.203 75.3628 143.612 76.2375 144.495C77.4375 145.703 79.2535 145.847 80.8055 145.683C82.1201 145.482 83.0988 145.203 83.7841 144.979C85.8415 144.312 92.7921 136.396 96.9815 137.312C96.9815 137.312 103.193 140.568 105.172 142.26C107.151 143.954 106.487 146.904 105.568 149.922C104.648 152.946 102.86 153.755 101.383 154.918C99.9041 156.079 96.4815 157.878 97.1068 159.99C97.7375 162.102 101.232 158.979 101.593 158.5C101.953 158.024 103.943 155.146 104.743 155.691C105.544 156.232 105.265 159.62 104.693 160.918C104.123 162.216 104.487 164.56 105.467 164.951C106.437 165.336 108.159 164.271 107.472 161.74C106.787 159.208 107.295 156.084 108.251 156.803C109.208 157.519 110.039 160.391 110.464 163.156C110.888 165.919 113.211 167.467 114.057 167.183C114.904 166.896 114.813 164.151 114.203 163.118C113.599 162.088 111.647 159.902 110.055 157.238C108.461 154.574 112.607 154.639 114.615 154.422C116.617 154.203 118.467 152.402 117.393 150.844C116.317 149.287 113.44 151.698 111.084 152.23C108.729 152.76 109.923 150.751 109.923 150.751C109.923 150.751 111.437 144.527 111.549 142.539C111.664 140.552 111.699 141.467 107.136 135.479C105.935 133.904 105.612 132.542 105.847 131.347C106.159 130.076 108.147 129.331 109.688 128.938C110.281 128.85 110.875 128.724 111.464 128.582C111.505 128.576 111.527 128.574 111.527 128.574C111.527 128.574 111.536 128.563 111.539 128.56C117.38 127.115 122.868 123.252 126.273 120.582C129.86 117.771 133.768 111.711 135.576 105.836C135.565 106.252 135.544 106.935 135.511 108.107C135.429 111.008 136.995 114.167 139.128 115.724C141.26 117.276 144.912 118.107 147.229 119.651C149.552 121.194 146.995 123.792 146.109 124.735C145.229 125.683 142.383 129.008 143.435 130.896C144.495 132.779 147.117 130.438 147.425 129.375C147.732 128.315 148.227 125.524 149.355 124.67C150.481 123.818 152.415 126.339 153.013 127.534C153.609 128.732 155.365 131.404 157.536 131.196C159.708 130.987 158.989 127.542 157.555 126.464C156.12 125.388 153.773 124.339 151.735 122.23C149.693 120.12 155.169 120.268 156.317 120.498C157.467 120.73 161.869 120.732 161.175 118.364C160.477 116 154.667 118.826 151.852 118.667C149.041 118.508 152.633 115.14 153.208 114.315C153.781 113.49 154.808 110.53 153.352 109.782C151.901 109.039 150.815 110.636 149.975 113.746C149.133 116.85 147.203 115.746 145.808 114.006C144.412 112.266 144.929 111.8 144.584 104.128C144.456 101.334 144.703 99.1803 145.081 97.5363C164.253 75.0017 162.323 41.1577 140.344 20.9803C130.279 11.7403 117.719 6.94565 105.06 6.46565C113.713 8.44699 121.989 12.623 129 19.0563Z" fill="#231F20"></path> <path d="M56.2999 6.8481C56.2066 6.8481 56.1226 6.86143 56.0506 6.8881C55.2119 7.19476 55.3786 9.9361 56.0132 10.9521C56.6439 11.9654 58.6546 14.1014 60.3159 16.7228C61.9799 19.3454 57.8306 19.3854 55.8306 19.6574C53.8306 19.9268 52.0346 21.7814 53.1492 23.3054C53.4039 23.6548 53.7479 23.7948 54.1546 23.7948C55.5266 23.7948 57.6119 22.2121 59.4172 21.7548C59.7146 21.6801 59.9546 21.6468 60.1492 21.6468C61.4879 21.6468 60.6172 23.2028 60.6172 23.2028C60.6172 23.2028 59.2692 29.4654 59.2119 31.4561C59.1492 33.4428 59.0919 32.5294 63.8079 38.3961C65.0492 39.9361 65.4119 41.2881 65.2092 42.4921C64.9306 43.7708 62.9639 44.5694 61.4332 45.0014C60.8412 45.1068 60.2532 45.2481 59.6639 45.4054C59.6252 45.4121 59.6026 45.4148 59.6026 45.4148L59.5919 45.4281C53.7892 47.0281 48.4092 51.0348 45.0732 53.7921C41.5626 56.7001 37.8186 62.8628 36.1639 68.7801C36.1666 68.3668 36.1666 67.6814 36.1666 66.5094C36.1719 63.6068 34.5266 60.4881 32.3519 58.9894C30.1772 57.4921 26.5079 56.7601 24.1466 55.2788C21.7866 53.8001 24.2719 51.1348 25.1306 50.1668C25.9906 49.1974 28.7452 45.7974 27.6439 43.9388C27.3519 43.4508 26.9599 43.2574 26.5359 43.2561C25.3466 43.2561 23.9012 44.7734 23.6959 45.5628C23.4146 46.6308 22.9946 49.4374 21.8906 50.3188C21.7292 50.4468 21.5492 50.5041 21.3572 50.5041C20.2319 50.5041 18.6946 48.5601 18.1599 47.5508C17.5612 46.4268 15.8759 43.9921 13.8466 43.9921C13.7439 43.9921 13.6412 43.9974 13.5372 44.0108C11.3732 44.2761 12.1826 47.7028 13.6466 48.7428C15.1066 49.7814 17.4826 50.7668 19.5759 52.8201C21.1732 54.3854 18.3719 54.7574 16.4372 54.7574C15.8332 54.7574 15.3146 54.7214 15.0399 54.6748C14.8106 54.6334 14.4532 54.6068 14.0332 54.6068C12.3412 54.6068 9.63724 55.0548 10.2426 56.9334C10.4586 57.5988 11.0732 57.8361 11.9092 57.8361C13.9786 57.8361 17.3972 56.3828 19.4332 56.3828C19.4732 56.3828 19.5132 56.3841 19.5519 56.3854C22.3706 56.4708 18.8626 59.9321 18.3132 60.7721C17.7612 61.6121 16.8159 64.6001 18.2892 65.3068C18.5172 65.4174 18.7372 65.4708 18.9452 65.4708C20.0759 65.4708 20.9212 63.8988 21.5626 61.2561C21.9159 59.8001 22.5279 59.2508 23.2279 59.2508C24.0306 59.2508 24.9479 59.9748 25.7186 60.8854C27.1639 62.5881 26.6572 63.0668 27.2092 70.7308C27.4092 73.5174 27.2172 75.6774 26.8839 77.3308C8.31857 100.368 11.1412 134.147 33.6492 153.735C43.9532 162.704 56.6359 167.161 69.3026 167.308C60.5972 165.555 52.2146 161.599 45.0372 155.355C27.7372 140.297 22.5812 116.48 30.4199 96.2588C32.3732 91.7774 35.7666 91.3908 36.8639 91.3908C36.9626 91.3908 37.0439 91.3948 37.1012 91.3974C37.5132 91.4468 37.9386 91.5174 38.3959 91.6268C43.4172 92.8574 42.8932 99.3134 42.8932 99.3134C43.2559 103.803 40.8359 104.144 39.3079 105.425C37.7759 106.705 35.6959 106.893 34.4612 109.344C33.7452 110.764 34.4212 111.308 35.2679 111.308C35.8812 111.308 36.5839 111.021 36.9119 110.579C37.6906 109.524 42.4506 105.685 44.1119 105.571C44.1292 105.569 44.1466 105.568 44.1626 105.568C45.7772 105.568 45.9399 111.123 46.1986 113.429C46.4612 115.759 48.0759 117.139 49.8159 117.273C49.8452 117.276 49.8732 117.277 49.9012 117.277C51.4746 117.277 49.2532 113.564 48.6746 111.099C48.0866 108.592 47.9612 107.263 49.7092 107.065C49.7532 107.06 49.7999 107.057 49.8479 107.057C51.6252 107.057 54.7852 110.572 56.1986 111.909C56.7092 112.392 57.3199 112.64 57.8812 112.64C58.9159 112.64 59.7879 111.799 59.5732 110.019C59.2399 107.271 53.4666 106.268 51.9772 106.057C50.4906 105.847 47.9906 106.265 49.1439 103.735C50.2946 101.201 54.0132 101.888 56.7292 101.584C59.4479 101.279 61.6146 100.044 60.6772 98.1908C60.4706 97.7814 59.9532 97.6174 59.2612 97.6174C56.8079 97.6174 52.1466 99.6734 51.1599 100.227C50.1279 100.803 48.6932 102.08 47.8519 102.08C47.6586 102.08 47.4959 102.012 47.3786 101.855C46.7372 101.005 47.8106 95.8121 48.3492 91.5974C48.8906 87.3828 44.0812 84.6654 44.0812 84.6654H44.1012C44.1866 84.6654 44.5346 84.6641 45.1386 84.6494C46.0212 84.7841 46.9239 84.8454 47.8332 84.8454C53.9306 84.8454 60.4212 82.0388 64.2012 78.9121C68.3052 75.5174 73.9852 66.3361 75.8159 58.7708C75.8666 58.7228 75.9146 58.7028 75.9612 58.7028C76.2719 58.7028 76.4399 59.6788 76.4399 59.6788C76.4399 59.6788 76.7266 63.9188 78.2866 67.1201C78.7892 68.1494 79.6292 68.5268 80.6039 68.5268C82.6559 68.5268 85.2972 66.8468 86.6172 66.0428C88.0092 65.1934 88.8239 63.7321 90.1852 63.7321C90.7266 63.7321 91.3519 63.9614 92.1359 64.5508C94.8932 66.6241 92.3279 69.2001 91.3879 70.0868C90.4479 70.9708 87.8239 72.7988 89.9306 74.3561C90.2506 74.5921 90.5999 74.6974 90.9626 74.6974C92.9866 74.6974 95.4252 71.4188 95.5572 69.3814C95.7146 66.9814 95.9399 64.8334 96.8706 64.2788C97.0319 64.1828 97.2159 64.1334 97.4306 64.1334C98.4466 64.1334 100.115 65.2694 102.983 68.0321C104.611 69.6014 105.689 70.0174 106.373 70.0174C107.143 70.0174 107.415 69.4908 107.415 69.4908C108.243 64.0414 100.316 62.8068 99.0972 62.0228C97.8759 61.2401 96.8186 60.6281 98.0159 59.3374C98.5706 58.7414 99.3066 58.5574 100.233 58.5574C101.312 58.5574 102.647 58.8068 104.251 58.9441C104.489 58.9654 104.72 58.9748 104.94 58.9748C107.483 58.9748 108.752 57.6254 105.776 55.0908C105.259 54.6494 104.64 54.4628 103.965 54.4628C100.433 54.4628 95.3452 59.5708 94.8466 59.9054C94.7772 59.9521 94.7079 59.9734 94.6412 59.9734C94.1372 59.9734 93.7212 58.7601 93.7586 57.8908C93.7946 56.9054 96.2759 56.4641 96.3279 54.8068C96.3399 54.4188 96.1079 54.2601 95.7386 54.2601C94.5279 54.2601 91.8439 55.9574 91.3732 56.8961C90.7559 58.1214 89.5999 60.6588 89.5999 60.6588C87.8599 61.8708 86.9772 62.4161 86.1292 62.4161C85.6959 62.4161 85.2706 62.2734 84.7452 62.0054C83.6386 61.4374 82.8132 60.1214 83.0519 57.6401C83.2919 55.2041 79.2786 53.5201 80.9746 52.3388C81.5999 52.1934 82.2999 52.1321 83.0452 52.1321C86.9999 52.1321 92.2199 53.8508 94.1452 53.8508C94.2746 53.8508 94.3892 53.8428 94.4879 53.8268C95.1959 53.7081 96.1959 53.5028 97.4532 53.0721C98.9092 52.5054 100.451 51.5388 100.953 49.9094C101.324 48.7228 109.157 45.3068 110.98 43.2414C111.055 43.1534 111.128 43.0588 111.201 42.9641C113.983 38.6574 112.704 35.2788 112.704 35.2788C110.239 30.5788 100.691 29.4214 93.4919 29.4214C90.7066 29.4214 88.2732 29.5948 86.7372 29.8028C85.1599 30.0161 83.6599 30.8601 82.3132 31.9414L82.3212 31.9281L82.2426 31.9934C81.7159 32.4241 81.2146 32.8854 80.7372 33.3694L78.7292 35.2041C77.8159 36.0534 76.7399 36.3401 75.7052 36.3401C74.4159 36.3401 73.1892 35.8961 72.4146 35.5414C72.1599 35.4108 71.8759 35.2614 71.5786 35.1068H71.5759C69.5679 34.0601 66.8106 32.5494 65.5946 31.5654C63.5679 29.9281 64.1572 26.9588 64.9932 23.9148C65.8332 20.8721 67.5999 20.0121 69.0479 18.8108C70.4932 17.6094 73.8679 15.7214 73.1852 13.6281C73.0199 13.1214 72.6959 12.9268 72.2932 12.9268C71.0306 12.9268 69.0026 14.8654 68.7372 15.2348C68.4212 15.6814 66.7799 18.1921 65.8826 18.1921C65.8039 18.1921 65.7306 18.1721 65.6639 18.1294C64.8519 17.6081 65.0372 14.2121 65.5759 12.9001C66.1119 11.5894 65.6852 9.25343 64.7012 8.89076C64.5799 8.84543 64.4479 8.8241 64.3106 8.8241C63.3359 8.8241 62.1159 9.9481 62.7759 12.1508C63.4599 14.4228 63.1759 17.2068 62.3946 17.2068C62.3119 17.2068 62.2239 17.1761 62.1306 17.1094C61.1546 16.4161 60.2479 13.5681 59.7479 10.8161C59.2932 8.30143 57.2852 6.8481 56.2999 6.8481ZM93.9066 62.5481C94.1452 62.6094 94.3906 62.6401 94.6412 62.6401H94.6839C94.5812 62.7468 94.4852 62.8601 94.3946 62.9774C94.2452 62.8334 94.0826 62.6894 93.9066 62.5481ZM61.9399 30.7934C62.2879 31.8401 62.9039 32.8201 63.9159 33.6374C65.0252 34.5361 67.1879 35.8268 70.3426 37.4708C70.3599 37.4801 70.3786 37.4881 70.3946 37.4974L70.6746 37.6441L71.1932 37.9121C71.2306 37.9321 71.2692 37.9508 71.3066 37.9681C72.3452 38.4414 73.9506 39.0068 75.7052 39.0068C77.5692 39.0068 79.2426 38.3681 80.5279 37.1734L82.5359 35.3388C82.5706 35.3068 82.6039 35.2748 82.6372 35.2414C83.0372 34.8348 83.4506 34.4548 83.8892 34.0921C83.9199 34.0681 83.9519 34.0454 83.9826 34.0201C85.1292 33.1001 86.1772 32.5694 87.0959 32.4454C88.7452 32.2214 91.1359 32.0881 93.4919 32.0881C102.121 32.0881 108.636 33.7508 110.24 36.3401C110.355 36.8334 110.661 38.8308 109.015 41.4334C109 41.4534 108.988 41.4681 108.981 41.4774C108.353 42.1868 105.741 43.6614 104.015 44.6374C100.217 46.7814 98.8812 47.5988 98.4052 49.1228C98.2479 49.6321 97.5679 50.1574 96.5346 50.5681C95.4786 50.9268 94.6639 51.0908 94.1212 51.1841C93.5946 51.1748 92.2066 50.8761 90.9799 50.6121C88.6092 50.1001 85.6586 49.4654 83.0452 49.4654C82.0439 49.4654 81.1692 49.5561 80.3719 49.7401C80.0412 49.8174 79.7279 49.9561 79.4492 50.1508C78.5772 50.7588 78.0319 51.6281 77.9132 52.6014C77.7092 54.2708 78.7679 55.4828 79.5412 56.3668C79.8212 56.6868 80.2786 57.2108 80.3892 57.4748C79.9839 62.0414 82.4452 63.8214 83.5332 64.3801C83.6479 64.4388 83.7719 64.5001 83.9026 64.5601C82.8426 65.1628 81.4919 65.8414 80.6399 65.8601C79.3732 63.1894 79.1026 59.5334 79.1012 59.5001C79.0946 59.4081 79.0839 59.3161 79.0679 59.2254C78.5572 56.2654 76.5599 56.0361 75.9612 56.0361C75.2412 56.0361 74.5479 56.3121 74.0052 56.8121C73.6199 57.1694 73.3479 57.6321 73.2239 58.1441C71.5186 65.1881 66.1572 73.8334 62.5012 76.8574C59.4026 79.4214 53.4919 82.1788 47.8332 82.1788C47.0386 82.1788 46.2666 82.1241 45.5372 82.0134C45.4052 81.9934 45.2719 81.9828 45.1386 81.9828C45.1172 81.9828 45.0972 81.9828 45.0759 81.9841C44.5092 81.9974 44.1812 81.9988 44.0906 81.9988H44.0826C42.8732 81.9988 41.8132 82.8134 41.5039 83.9828C41.1932 85.1561 41.7132 86.3908 42.7692 86.9868C42.8012 87.0054 46.0039 88.9268 45.7039 91.2601C45.5626 92.3681 45.3826 93.5441 45.2092 94.6894C45.1772 94.8988 45.1452 95.1014 45.1159 95.3001C44.3719 92.6454 42.6199 89.9174 39.0159 89.0334C38.4932 88.9094 37.9719 88.8161 37.4199 88.7494C37.3679 88.7441 37.3159 88.7388 37.2639 88.7361C37.1639 88.7294 37.0306 88.7241 36.8639 88.7241C35.4399 88.7241 30.5919 89.1908 27.9746 95.1921C27.9612 95.2268 27.9466 95.2601 27.9332 95.2948C19.4892 117.079 25.6586 142.023 43.2866 157.367C43.3212 157.396 43.3546 157.425 43.3879 157.455C40.5679 155.807 37.8906 153.891 35.3999 151.723C25.0572 142.723 18.7092 130.248 17.5199 116.595C16.3346 102.977 20.3972 89.6281 28.9599 79.0041C29.2279 78.6708 29.4119 78.2774 29.4972 77.8574C29.9359 75.6801 30.0612 73.2188 29.8679 70.5388C29.7172 68.4361 29.6479 66.9134 29.5932 65.6894C29.4679 62.9294 29.4052 61.5388 28.3972 60.0108C29.3452 60.3814 30.2306 60.7668 30.8386 61.1854C32.3346 62.2161 33.5039 64.5534 33.4999 66.5094C33.4999 67.6734 33.4999 68.3521 33.4972 68.7628C33.4892 70.0988 34.4706 71.2348 35.7946 71.4214C35.9186 71.4388 36.0439 71.4468 36.1666 71.4468C37.3466 71.4468 38.4066 70.6628 38.7332 69.4974C40.2066 64.2268 43.5879 58.4841 46.7719 55.8481C51.7332 51.7468 56.2839 49.1068 60.2999 48.0001C60.3346 47.9894 60.3692 47.9801 60.4039 47.9681C60.9772 47.8161 61.4546 47.7068 61.9012 47.6268C61.9879 47.6121 62.0732 47.5921 62.1572 47.5681C65.4626 46.6348 67.3652 45.1188 67.8146 43.0601C67.8239 43.0188 67.8306 42.9774 67.8386 42.9348C68.1892 40.8561 67.5319 38.7654 65.8852 36.7254C64.4866 34.9841 63.4772 33.8028 62.8092 33.0214C62.4239 32.5708 62.0546 32.1388 61.8639 31.8894C61.8666 31.8161 61.8706 31.7348 61.8732 31.6441L61.8772 31.5334C61.8826 31.3454 61.9052 31.0934 61.9399 30.7934ZM63.4599 19.6774C63.5746 19.8214 63.6999 19.9561 63.8386 20.0801C63.6532 20.3508 63.4746 20.6454 63.3052 20.9614C63.2506 20.8348 63.1879 20.7081 63.1146 20.5828C62.9839 20.3601 62.8306 20.1588 62.6572 19.9801C62.6879 19.9388 62.7172 19.8961 62.7466 19.8521C62.9919 19.8241 63.2319 19.7654 63.4599 19.6774Z" fill="#231F20"></path> <path d="M103.818 35.114C104.37 35.354 104.621 35.998 104.381 36.5487C104.138 37.1007 103.495 37.3554 102.943 37.1114C102.391 36.8714 101.291 36.4034 101.531 35.854C101.774 35.302 103.266 34.8727 103.818 35.114Z" fill="#231F20"></path> <path d="M85.7921 34.8991C87.0161 34.4178 90.0894 34.3604 90.5708 35.5871C91.0494 36.8111 88.7561 38.8591 87.5321 39.3391C86.3081 39.8191 84.9254 39.2151 84.4428 37.9884C83.9614 36.7644 84.5654 35.3791 85.7921 34.8991Z" fill="#231F20"></path> <path d="M90.7581 62.6866L94.1488 64.6826L95.1101 63.0493L96.5808 60.5493L93.6701 61.6186L92.7688 59.2693L89.4554 61.9213L90.7581 62.6866Z" fill="#231F20"></path> <path fill-rule="evenodd" clip-rule="evenodd" d="M0.333374 86.8409C0.333374 134.616 39.0674 173.346 86.8414 173.346C134.619 173.346 173.349 134.616 173.349 86.8409C173.349 39.0641 134.619 0.33284 86.8414 0.33284C39.0673 0.33284 0.333374 39.064 0.333374 86.8409ZM86.8414 168.013C42.0127 168.013 5.66671 131.671 5.66671 86.8409C5.66671 42.0097 42.0127 5.66618 86.8414 5.66618C131.674 5.66618 168.016 42.0096 168.016 86.8409C168.016 131.671 131.674 168.013 86.8414 168.013Z" fill="#231F20"></path> <path d="M63.9223 18.2578L62.1437 19.0351C62.1437 19.0351 61.0077 19.7031 61.5757 20.1471C62.1437 20.5911 62.6703 22.2578 62.6703 22.2578L63.9223 21.5911L64.9223 20.2578L63.9223 18.2578Z" fill="#231F20"></path> </svg>