<?xml version="1.0" encoding="UTF-8" standalone="no"?>
<svg
   width="165"
   height="161"
   viewBox="0 0 165 161"
   fill="none"
   version="1.1"
   id="svg10"
   sodipodi:docname="iconDomination.svg"
   inkscape:version="1.4 (86a8ad7, 2024-10-11)"
   xmlns:inkscape="http://www.inkscape.org/namespaces/inkscape"
   xmlns:sodipodi="http://sodipodi.sourceforge.net/DTD/sodipodi-0.dtd"
   xmlns="http://www.w3.org/2000/svg"
   xmlns:svg="http://www.w3.org/2000/svg">
  <defs
     id="defs10" />
  <sodipodi:namedview
     id="namedview10"
     pagecolor="#ffffff"
     bordercolor="#000000"
     borderopacity="0.25"
     inkscape:showpageshadow="2"
     inkscape:pageopacity="0.0"
     inkscape:pagecheckerboard="0"
     inkscape:deskcolor="#d1d1d1"
     inkscape:zoom="6.4782609"
     inkscape:cx="82.42953"
     inkscape:cy="80.5"
     inkscape:window-width="2400"
     inkscape:window-height="1261"
     inkscape:window-x="-9"
     inkscape:window-y="-9"
     inkscape:window-maximized="1"
     inkscape:current-layer="svg10" />
  <path
     d="M125.709 39.3997C119.696 39.3997 114.821 34.5251 114.821 28.5117C114.821 22.4984 119.696 17.6237 125.709 17.6237C131.722 17.6237 136.597 22.4984 136.597 28.5117C136.597 34.5251 131.722 39.3997 125.709 39.3997ZM125.709 12.5117C116.873 12.5117 109.709 19.6757 109.709 28.5117C109.709 37.3477 116.873 44.5117 125.709 44.5117C134.545 44.5117 141.708 37.3477 141.708 28.5117C141.708 19.6757 134.545 12.5117 125.709 12.5117Z"
     fill="none"
     id="path1"
     style="fill:#ffffff" />
  <path
     d="M131.628 37.6426C131.659 37.6212 131.692 37.6066 131.723 37.5852C131.663 37.5692 131.616 37.5692 131.555 37.5519C131.58 37.5826 131.603 37.6146 131.628 37.6426Z"
     fill="none"
     id="path2"
     style="fill:#ffffff" />
  <path
     d="M135.748 32.7304C134.911 34.7197 133.499 36.4051 131.723 37.5851C131.692 37.6051 131.66 37.6211 131.628 37.6424C129.923 38.7491 127.893 39.3997 125.709 39.3997C119.695 39.3997 114.82 34.5251 114.82 28.5117C114.82 23.3144 118.464 18.9757 123.335 17.8891C124.1 17.7197 124.892 17.6237 125.709 17.6237C131.721 17.6237 136.597 22.4984 136.597 28.5117C136.597 30.0064 136.295 31.4331 135.748 32.7304ZM139.177 19.8971C137.476 17.2437 135.021 15.1237 132.104 13.8504C130.144 12.9931 127.984 12.5117 125.709 12.5117C122.493 12.5117 119.504 13.4704 116.996 15.1024C112.612 17.9571 109.709 22.8917 109.709 28.5117C109.709 37.3477 116.872 44.5117 125.709 44.5117C129.077 44.5117 132.197 43.4651 134.776 41.6864C138.961 38.8011 141.708 33.9784 141.708 28.5117C141.708 25.3344 140.772 22.3837 139.177 19.8971Z"
     fill="#none"
     id="path3"
     style="fill:#ffffff" />
  <path
     d="M99.2233 31.3111C101.85 31.3111 104.397 31.6471 106.826 32.2805L103.523 27.3445C102.114 27.1711 100.681 27.0685 99.2233 27.0685C86.246 27.0685 74.9513 34.2671 69.1087 44.8871L71.0287 50.8418C75.3127 39.4338 86.3167 31.3111 99.2233 31.3111Z"
     fill="#231F20"
     id="path4"
     style="fill:#ffffff" />
  <path
     d="M146.335 27.7254C145.919 16.6814 136.858 7.84539 125.709 7.84539C124.881 7.84539 124.066 7.90007 123.263 7.9934C117.911 4.92274 112.181 2.4334 106.154 0.626735L101.317 8.96806C105.827 10.1681 110.159 11.8041 114.279 13.8067C114.693 13.4854 115.098 13.1547 115.541 12.8654C118.579 10.8894 122.095 9.84539 125.709 9.84539C128.291 9.84539 130.802 10.3681 133.171 11.4054C136.561 12.8867 139.414 15.3241 141.422 18.4574C143.354 21.4707 144.375 24.9467 144.375 28.5121C144.375 34.6441 141.353 40.3921 136.29 43.8814C136.286 43.8841 136.283 43.8867 136.281 43.8894C140.005 49.5721 142.85 55.8787 144.627 62.6214H133.297C133.318 63.1081 133.334 63.5947 133.334 64.0867C133.334 65.9361 133.173 67.7467 132.877 69.5121H146.042C146.238 70.8321 146.398 72.1654 146.511 73.5121H131.947C131.745 74.1867 131.522 74.8534 131.278 75.5094H146.642C146.703 76.6494 146.746 77.7987 146.746 78.9547C146.746 105.204 130.963 127.756 108.375 137.673V107.567H127.042V104.012H108.375V99.7334H134.321V96.1787H108.375C108.375 96.1787 103.251 96.8654 100.557 96.8654C99.7593 96.8654 98.9727 96.8267 98.19 96.7694V141.155C93.2087 142.397 88.0007 143.067 82.6353 143.067C50.1313 143.067 23.294 118.871 19.11 87.5121H63.746V117.179H67.302V87.5121H72.8567V123.512H76.4127V87.5121H77.6607C75.8193 85.7121 74.1927 83.6987 72.814 81.5121H18.5887C18.5553 80.6627 18.5247 79.8107 18.5247 78.9547C18.5247 54.9547 31.722 34.0481 51.2473 23.0587L42.3847 7.7774C17.5967 21.8267 0.858002 48.4281 0.858002 78.9547C0.858002 124.119 37.4713 160.733 82.6353 160.733C127.799 160.733 164.413 124.119 164.413 78.9547C164.413 59.5481 157.631 41.7441 146.335 27.7254Z"
     fill="#231F20"
     id="path5"
     style="fill:#ffffff" />
  <path
     d="M100.557 89.9406C86.302 89.9406 74.706 78.3432 74.706 64.0886C74.706 49.8339 86.302 38.2379 100.557 38.2379C114.811 38.2379 126.407 49.8339 126.407 64.0886C126.407 78.3432 114.811 89.9406 100.557 89.9406ZM100.557 33.9779C83.9273 33.9779 70.446 47.4606 70.446 64.0872C70.446 80.7179 83.9273 94.1992 100.557 94.1992C117.186 94.1992 130.667 80.7179 130.667 64.0872C130.667 47.4606 117.186 33.9779 100.557 33.9779Z"
     fill="#231F20"
     id="path6"
     style="fill:#ffffff" />
  <path
     d="M100.557 86.0901C88.406 86.0901 78.5567 76.2381 78.5567 64.0874C78.5567 51.9368 88.406 42.0874 100.557 42.0874C112.707 42.0874 122.558 51.9368 122.558 64.0874C122.558 76.2381 112.707 86.0901 100.557 86.0901ZM100.557 39.5701C87.038 39.5701 76.0393 50.5688 76.0393 64.0888C76.0393 77.6088 87.038 88.6074 100.557 88.6074C114.075 88.6074 125.074 77.6088 125.074 64.0888C125.074 50.5688 114.075 39.5701 100.557 39.5701Z"
     fill="#231F20"
     id="path7"
     style="fill:#ffffff" />
  <path
     d="M135.748 32.7304C134.911 34.7197 133.499 36.4051 131.723 37.5851C131.692 37.6051 131.66 37.6211 131.628 37.6424C129.923 38.7491 127.893 39.3997 125.709 39.3997C119.695 39.3997 114.82 34.5251 114.82 28.5117C114.82 23.3144 118.464 18.9757 123.335 17.8891C124.1 17.7197 124.892 17.6237 125.709 17.6237C131.721 17.6237 136.597 22.4984 136.597 28.5117C136.597 30.0064 136.295 31.4331 135.748 32.7304ZM139.177 19.8971C137.476 17.2437 135.021 15.1237 132.104 13.8504C130.144 12.9931 127.984 12.5117 125.709 12.5117C122.493 12.5117 119.504 13.4704 116.996 15.1024C112.612 17.9571 109.709 22.8917 109.709 28.5117C109.709 37.3477 116.872 44.5117 125.709 44.5117C129.077 44.5117 132.197 43.4651 134.776 41.6864C138.961 38.8011 141.708 33.9784 141.708 28.5117C141.708 25.3344 140.772 22.3837 139.177 19.8971Z"
     fill="#231F20"
     id="path8"
     style="fill:#ffffff" />
  <path
     d="M125.708 34.3906C122.462 34.3906 119.83 31.7573 119.83 28.512C119.83 28.264 119.874 28.0306 119.903 27.7906C120.263 30.6933 122.708 32.948 125.708 32.948C128.708 32.948 131.154 30.6933 131.514 27.7906C131.543 28.0306 131.587 28.264 131.587 28.512C131.587 31.7573 128.955 34.3906 125.708 34.3906ZM123.098 26.472C123.826 26.472 124.416 27.0626 124.416 27.792C124.416 28.5213 123.826 29.1093 123.098 29.1093C122.368 29.1093 121.778 28.5213 121.778 27.792C121.778 27.0626 122.368 26.472 123.098 26.472ZM131.219 25.132C130.147 27.0546 127.719 27.7453 125.798 26.6733C123.939 25.6373 123.25 23.3426 124.168 21.4546C120.919 22.1613 118.483 25.0506 118.483 28.512C118.483 32.5013 121.718 35.7373 125.708 35.7373C129.699 35.7373 132.934 32.5013 132.934 28.512C132.934 26.9333 132.42 25.476 131.562 24.2866C131.479 24.5746 131.371 24.8586 131.219 25.132Z"
     fill="#231F20"
     id="path9"
     style="fill:#ffffff" />
  <path
     d="M115.536 64.2656C115.536 72.511 108.852 79.1963 100.605 79.1963C94.8837 79.1963 89.9197 75.9736 87.4131 71.2483C90.1211 75.035 94.5437 77.511 99.5544 77.511C107.8 77.511 114.485 70.827 114.485 62.5803C114.485 60.0563 113.853 57.683 112.748 55.5976C114.496 58.043 115.536 61.0296 115.536 64.2656ZM101.614 62.3083C103.326 62.3083 104.714 63.6963 104.714 65.407C104.714 67.1216 103.326 68.5096 101.614 68.5096C99.9024 68.5096 98.5131 67.1216 98.5131 65.407C98.5131 63.6963 99.9024 62.3083 101.614 62.3083ZM100.557 47.203C99.1251 47.203 97.7437 47.4003 96.4171 47.7363C98.8491 48.7643 100.557 51.175 100.557 53.9816C100.557 57.7243 97.5224 60.7576 93.7797 60.7576C90.0571 60.7576 87.0424 57.7563 87.0077 54.043C84.9224 56.8523 83.6731 60.3203 83.6731 64.0883C83.6731 73.4136 91.2317 80.9736 100.557 80.9736C109.881 80.9736 117.441 73.4136 117.441 64.0883C117.441 54.763 109.881 47.203 100.557 47.203Z"
     fill="#231F20"
     id="path10"
     style="fill:#ffffff" />
</svg>
