<?xml version="1.0" encoding="UTF-8" standalone="no"?>
<svg
   width="161"
   height="208"
   viewBox="0 0 161 208"
   fill="none"
   version="1.1"
   id="svg6"
   sodipodi:docname="iconPutrescence.svg"
   inkscape:version="1.4 (86a8ad7, 2024-10-11)"
   xmlns:inkscape="http://www.inkscape.org/namespaces/inkscape"
   xmlns:sodipodi="http://sodipodi.sourceforge.net/DTD/sodipodi-0.dtd"
   xmlns="http://www.w3.org/2000/svg"
   xmlns:svg="http://www.w3.org/2000/svg">
  <defs
     id="defs6" />
  <sodipodi:namedview
     id="namedview6"
     pagecolor="#ffffff"
     bordercolor="#000000"
     borderopacity="0.25"
     inkscape:showpageshadow="2"
     inkscape:pageopacity="0.0"
     inkscape:pagecheckerboard="0"
     inkscape:deskcolor="#d1d1d1"
     inkscape:zoom="5.0144231"
     inkscape:cx="80.567593"
     inkscape:cy="104"
     inkscape:window-width="2400"
     inkscape:window-height="1261"
     inkscape:window-x="-9"
     inkscape:window-y="-9"
     inkscape:window-maximized="1"
     inkscape:current-layer="svg6" />
  <path
     d="M27.2852 20.2061L36.6025 16.3994C45.4318 11.2941 31.5905 0.514054 31.5905 0.514054C31.5905 0.514054 33.7398 4.93272 34.4905 10.6541C35.2425 16.3767 27.2852 20.2061 27.2852 20.2061Z"
     fill="#231F20"
     id="path1"
     style="fill:#ffffff" />
  <path
     d="M33.151 35.0763C42.7924 26.7563 56.4844 35.083 56.4844 35.083C46.3564 14.2763 32.6577 35.5017 33.151 35.0763Z"
     fill="#231F20"
     id="path2"
     style="fill:#ffffff" />
  <path
     d="M124.764 16.6826L134.082 20.4893C134.082 20.4893 126.126 16.6599 126.876 10.9373C127.628 5.21592 129.778 0.797258 129.778 0.797258C129.778 0.797258 115.935 11.5773 124.764 16.6826Z"
     fill="#231F20"
     id="path3"
     style="fill:#ffffff" />
  <path
     d="M128.216 35.3595C128.709 35.7849 115.011 14.5595 104.883 35.3662C104.883 35.3662 118.575 27.0395 128.216 35.3595Z"
     fill="#231F20"
     id="path4"
     style="fill:#ffffff" />
  <path
     d="M91.5924 183.834C85.0924 178.834 80.5924 170.334 80.5924 170.334C80.5924 170.334 76.0924 178.834 69.5924 183.834C63.0924 188.834 62.0924 201 66.7591 207.667C66.7591 207.667 65.1764 192.25 77.7591 189L80.5924 188.444L83.4258 189C96.0098 192.25 94.4258 207.667 94.4258 207.667C99.0924 201 98.0924 188.834 91.5924 183.834Z"
     fill="#231F20"
     id="path5"
     style="fill:#ffffff" />
  <path
     d="M94.4623 129.382C92.9703 137.73 85.9796 140.648 85.9796 140.648C85.9796 140.648 90.9343 130.467 80.8876 121.712C80.8876 121.712 81.2276 128.431 78.3769 130.535C78.3769 130.535 78.9889 127.278 77.4263 126.123C77.4263 126.123 76.5436 129.788 75.0503 131.418C73.5569 133.047 72.4716 138.002 74.5756 140.648C74.5756 140.648 65.2756 136.508 66.9049 129.314C68.5343 122.119 71.1809 121.643 70.7743 118.318C70.7743 118.318 72.5396 120.694 71.8609 123.544C71.8609 123.544 77.6303 119.811 78.3769 109.019C78.3769 109.019 85.0969 110.24 86.6569 120.762C86.6569 120.762 88.9649 119.675 88.2183 115.331C88.2183 115.331 95.9556 121.032 94.4623 129.382ZM75.2903 56.7297C78.5316 56.3537 82.6343 59.9483 82.6343 59.9483C82.6343 59.9483 80.2836 58.9443 77.3743 58.6163C77.0849 58.583 73.1529 59.0057 73.1529 59.0057C72.8303 59.103 72.6343 59.1803 72.6343 59.1803C72.6343 59.1803 74.0303 56.8763 75.2903 56.7297ZM147.52 91.475C152.88 85.7057 155.69 79.527 157.105 74.191C157.105 74.1897 157.106 74.1897 157.106 74.1883C159.94 64.8403 158.612 54.7617 157.441 51.7003C155.052 45.451 160.606 45.4403 160.606 45.4403C156.517 42.283 153.804 44.059 152.36 45.791C152.176 41.4697 150.67 37.415 149.254 34.935C148.708 33.9777 148.153 33.131 147.601 32.3617C145.889 30.5483 143.913 28.8777 141.608 27.451C126.157 17.8803 118.99 22.6297 119.274 7.78434C119.274 7.78434 111.018 19.1243 125.441 29.1177C129.997 32.2737 132.814 37.1083 134.068 42.0323C129.77 37.087 122.385 34.935 122.385 34.935C136.26 43.355 130.777 61.1897 130.012 63.455C124.856 73.435 116.689 81.603 106.684 86.7243C106.442 86.847 106.2 86.9697 105.956 87.0897L103.385 112.806L102.096 105.87C101.782 104.016 101.402 101.995 100.997 99.971L100.993 99.9523V99.9537C100.197 95.9803 99.3196 92.0403 98.7516 89.5457C98.7249 89.431 98.6956 89.299 98.6703 89.191C98.6556 89.195 98.6409 89.2017 98.6263 89.207C98.5929 89.0617 98.5556 88.8977 98.5249 88.7643C98.4983 88.6497 98.4689 88.5137 98.4436 88.4097C98.4343 88.4137 98.4236 88.419 98.4129 88.423L92.2063 66.371V66.3683L91.9796 65.5657C97.5996 70.771 102.721 65.375 102.721 65.375C98.3049 67.375 93.8543 62.331 93.8543 62.331C93.8543 62.331 102.078 65.6337 105.61 59.883C109.144 54.1337 102.721 51.9163 102.721 51.9163C102.721 51.9163 106.44 55.4977 102.805 58.6257C100.057 60.9897 95.4516 59.2897 93.4489 58.3657C93.3836 58.0617 93.3316 57.8737 93.3316 57.8737L89.9343 56.4043C73.1316 49.3723 69.7249 56.6683 69.7249 56.6683C69.7249 56.6683 67.1756 55.7843 64.8423 55.1177C62.5089 54.451 60.1596 56.1097 60.1596 56.1097L66.2596 60.6497L59.3409 61.3163C59.3409 61.3163 59.9676 63.6523 62.0089 64.3683C64.0503 65.0843 67.2009 66.1883 67.2009 66.1883C65.2756 74.3723 63.0729 84.9617 62.2129 89.2137C62.1903 89.2083 62.1676 89.1977 62.1463 89.191C62.1209 89.299 62.0916 89.431 62.0649 89.5457C60.7543 95.2923 57.8103 108.711 57.9823 112.522L55.4116 86.8057C55.1676 86.6857 54.9249 86.563 54.6836 86.4403C44.6783 81.319 36.5116 73.151 31.3556 63.171C30.5903 60.907 25.1076 43.071 38.9823 34.651C38.9823 34.651 31.5969 36.803 27.2996 41.7483C28.5529 36.8257 31.3703 31.991 35.9263 28.8337C50.3489 18.8403 42.0929 7.50032 42.0929 7.50032C42.3769 22.3457 35.2089 17.5977 19.7596 27.167C17.4543 28.5937 15.4783 30.2643 13.7649 32.0777C13.2129 32.8483 12.6596 33.6937 12.1129 34.651C10.6969 37.131 9.19159 41.187 9.00759 45.507C7.56359 43.775 4.85026 41.999 0.760925 45.1577C0.760925 45.1577 6.31559 45.167 3.92626 51.4163C2.75559 54.4777 1.42759 64.5563 4.26093 73.9043C4.26093 73.9057 4.26226 73.907 4.26226 73.9083C5.67692 79.243 8.48626 85.4217 13.8476 91.191C4.8396 88.551 1.42759 96.111 1.42759 96.111C8.33826 91.9003 12.9196 99.8403 13.1716 100.292C13.1823 100.314 13.1956 100.334 13.2063 100.356L13.2476 100.462C13.3543 100.707 13.4529 100.958 13.5383 101.222C14.0769 102.915 14.1836 104.442 14.3116 106.038C14.3649 106.431 15.4823 114.162 20.7676 117.864C22.5636 119.152 24.7489 120.344 27.0943 120.778C27.0943 120.778 13.3716 121.223 19.3716 132.278C19.3716 132.278 19.5596 125.578 25.4223 127.5C27.1396 128.063 28.7196 128.875 30.0796 129.715C31.5809 130.971 33.1303 132.168 34.7236 133.307C34.7756 133.358 34.8129 133.395 34.8129 133.395L34.8196 133.378C41.5103 138.142 48.9836 141.874 57.0303 144.3C57.0303 144.3 68.9263 154.334 57.7596 161.5C57.7596 161.5 66.4449 163.799 67.9823 155C67.9823 155 69.7596 160.334 65.9263 165.667C61.3409 172.047 47.0929 190.556 59.0929 203.444C59.0929 203.444 54.0183 188.242 67.5223 178.104C74.8583 172.598 78.8543 168.248 80.8156 164.22C82.7756 168.248 86.7716 172.598 94.1076 178.104C107.612 188.242 102.538 203.444 102.538 203.444C114.538 190.556 100.289 172.047 95.7049 165.667C91.8716 160.334 93.6489 155 93.6489 155C95.1849 163.799 103.872 161.5 103.872 161.5C93.7916 155.031 102.498 146.23 104.292 144.576L104.337 144.584C112.384 142.158 119.857 138.426 126.546 133.662L126.554 133.679C126.554 133.679 126.592 133.642 126.644 133.591C128.237 132.452 129.786 131.255 131.288 129.999C132.648 129.159 134.228 128.347 135.945 127.784C141.808 125.862 141.996 132.562 141.996 132.562C147.996 121.507 134.273 121.062 134.273 121.062C136.618 120.628 138.804 119.436 140.6 118.148C145.885 114.446 147.002 106.714 147.056 106.322C147.184 104.726 147.29 103.199 147.829 101.506C147.914 101.242 148.013 100.991 148.12 100.744L148.161 100.64C148.172 100.618 148.185 100.598 148.196 100.575C148.448 100.124 153.029 92.1843 159.94 96.395C159.94 96.395 156.528 88.835 147.52 91.475Z"
     fill="#231F20"
     id="path6"
     style="fill:#ffffff" />
</svg>
