<svg width="135" height="112" viewBox="0 0 135 112" fill="none" xmlns="http://www.w3.org/2000/svg">
        <path d="M59.1389 12.7431C54.8777 19.7222 51.4133 25.625 51.4133 25.8333C51.4133 26.0417 56.6099 34.7222 62.9843 45.1389C69.3241 55.5555 76.1836 66.9444 78.2276 70.4861L81.9344 76.9097L97.9052 77.0139C109.164 77.0486 113.876 76.9791 113.876 76.7014C113.876 76.3541 99.8106 52.9861 80.4448 21.1805C75.1443 12.5 70.0863 4.16667 69.2202 2.70833C68.3541 1.21528 67.4534 0 67.2455 0C67.0376 0 63.4001 5.72917 59.1389 12.7431ZM33.7104 54.618C10.8109 92.3958 -0.171202 110.799 0.00201694 111.007C0.105948 111.111 7.24256 111.215 15.8342 111.215C29.3453 111.285 31.5278 111.215 31.9435 110.764C32.8789 109.653 62.2568 60.7639 62.2568 60.243C62.2568 59.9653 59.9703 55.9375 57.1642 51.3194C54.3927 46.6667 50.9283 40.9028 49.4733 38.4722C48.0182 36.0417 46.7018 34.0278 46.4939 34.0278C46.3207 34.0278 40.5352 43.2986 33.7104 54.618ZM65.1322 73.0555C63.9197 75.0347 62.9497 76.7361 62.9497 76.875C62.9497 76.9791 65.063 77.0833 67.6266 77.0833C70.9177 77.0833 72.3035 76.9791 72.3035 76.7014C72.3035 76.0069 68.1116 69.4444 67.6959 69.4444C67.4534 69.4444 66.3101 71.0764 65.1322 73.0555ZM50.3394 97.2222C45.8357 104.687 42.2327 110.937 42.3367 111.111C42.6138 111.597 133.865 111.597 134.143 111.111C134.246 110.937 130.713 104.687 126.278 97.2222L118.206 83.6805H58.5153L50.3394 97.2222Z" fill="#010101"></path>
        </svg>